<?xml version="1.0" standalone="no"?>
<!DOCTYPE svg PUBLIC "-//W3C//DTD SVG 1.1//EN" "http://www.w3.org/Graphics/SVG/1.1/DTD/svg11.dtd">
<svg xmlns="http://www.w3.org/2000/svg">
<metadata>Copyright (C) 2016 by original authors @ fontello.com</metadata>
<defs>
<font id="st-font-icon" horiz-adv-x="1000" >
<font-face font-family="st-font-icon" font-weight="400" font-stretch="normal" units-per-em="1000" ascent="850" descent="-150" />
<missing-glyph horiz-adv-x="1000" />
<glyph glyph-name="line" unicode="&#xe800;" d="M72-141c-16 0-32 6-44 19-25 24-25 63 0 88l856 856c25 25 64 25 88 0 25-24 25-64 0-88l-856-856c-12-13-28-19-44-19z" horiz-adv-x="1000" />
<glyph glyph-name="orientation-portrait" unicode="&#xe801;" d="M597 259l42-44-139-141-139 141 42 44 97-97 97 97z m268 591v-1000h-730v1000h730z m-15-15h-699v-970h698v970z m-350-295l97-97 42 44-139 141-139-141 42-44 97 97z" horiz-adv-x="1000" />
<glyph glyph-name="orientation-landscape" unicode="&#xe802;" d="M409 253l-44-42-141 139 141 139 44-42-97-97 97-97z m591-268h-1000l0 730h1000v-730z m-15 16v699h-970v-699h970z m-295 349l-97-97 44-42 141 139-141 139-44-42 97-97z" horiz-adv-x="1000" />
<glyph glyph-name="down-arrow-thin" unicode="&#xe803;" d="M770 15l-734 592c-18 15-21 44-6 62s44 21 62 6l681-547 680 547c18 15 48 12 63-6 14-18 11-47-6-62l-740-592z" horiz-adv-x="1545" />
<glyph glyph-name="a-6_intruder_folded" unicode="&#xe804;" d="M722 766l390 33c-1 0-3 0-4 0-6 1-12 5-14 11h-338c-11 0-20 9-20 19 0 11 9 19 20 19h358c11 0 19-8 19-19 0-1 0-1-1-7l-1-7c-2-10-10-16-19-16z m365-113c-1 0-2 0-3 0-11 2-18 12-17 22 6 37 14 78 18 106 2 11 12 18 23 16 11-2 18-12 16-22-5-28-12-69-18-106-1-9-10-16-19-16z m820-717c-32 0-108 5-144 54-33 45-169 236-201 282-29-4-105-14-174-21-81-8-191-15-204-16-3-1-17-5-19-15-3-28-4-32-4-32-1-8-8-15-16-16l-54-9c-1-5-1-13 0-23 0-6 2-22 10-69 2-11-5-21-16-22-11-2-21 5-22 15-7 40-11 63-11 72-4 34 5 50 8 54 3 4 7 7 13 8l51 9c0 5 1 10 2 17 4 33 35 46 52 49 1 0 2 0 2 0 2 0 119 8 204 16 86 9 184 22 185 22 7 2 14-2 19-8 1-2 170-240 207-291 21-28 68-36 101-37l-79 344c-1 5 0 11 4 15 3 4 8 7 13 8 32 4 65 8 96 12-31 4-65 7-97 11-6 0-11 3-14 7-3 5-4 10-3 16l74 342c-30-1-74-8-91-33-33-50-201-282-208-292-5-6-12-9-19-8-1 0-115 15-194 22-79 7-181 11-182 11-1 0-2 0-3 1-18 3-61 13-67 42-3 9-4 19-5 26l-51 8c-8 1-15 7-17 15 0 3-4 28 3 80 1 9 3 22 5 39 2 10 12 17 23 16 11-2 18-12 16-22-2-16-4-29-5-38-4-26-4-44-4-55l51-7c9-1 16-9 17-18 0 0 1-18 5-35 4-4 20-11 35-13 12-1 108-5 183-12 65-6 152-17 183-21 33 46 172 238 201 282 40 59 145 51 149 50 6 0 11-3 14-7 4-5 5-10 4-16l-74-344c20-3 52-6 84-10 31-4 56-7 73-10 32-4 50-7 50-26 0-19-17-22-49-27-18-3-42-7-73-11-31-4-63-8-83-11l78-346c2-5 0-11-3-16-3-4-9-7-14-7-1 0-7-1-15-1z m-802-25c-9 0-17 7-19 16-5 30-12 68-18 104-2 11 6 20 16 22 11 2 21-5 23-16 6-35 12-73 18-104 1-10-6-20-16-22-2 0-3 0-4 0z m10-58h-359c-11 0-20 9-20 20s9 19 20 19h337c2 7 8 14 16 15 11 2 21-5 23-15l3-16c1-6-1-12-5-16-3-4-9-7-15-7z m-394 86l0-19c-7 0-14 4-17 10l-41 78c-5 9-1 21 8 26 10 5 22 1 27-9l41-77c4-10 1-21-9-26-3-2-6-2-9-2z m-74 123c-7 0-14 4-18 10l-9 18-126 90h-109c0 0-1 0-1 0-41 2-90 10-90 42v2c-27 3-79 8-132 20-109 23-162 59-162 108 0 49 53 84 162 107 53 11 104 17 131 19v8c0 14 9 34 88 37 0 0 0 0 1 0h110l126 88 11 22c5 10 17 13 27 9 9-5 13-17 8-26l-14-26c-1-3-3-5-6-7l-135-95c-3-2-7-3-11-3h-116c-19-1-40-4-49-7v-18c0-10-9-19-19-19-111-6-275-39-275-89 0-51 165-84 276-91 10 0 18-9 18-19v-15c9-4 32-8 52-8h115c5 0 9-2 12-4l135-97c3-2 5-4 6-7l11-21c5-10 1-21-8-26-3-2-6-2-9-2z m34 607c-4 0-7 0-10 2-9 5-13 16-8 26l42 78c5 10 17 13 26 9 10-5 14-17 9-26l-42-79c-4-7-10-10-17-10z m41 78c0 0-1 0-1 0-2 0-40 3-79 9-62 9-94 17-94 42 0 23 25 32 112 42 47 6 94 8 95 8 10 1 20-7 20-18 1-10-7-19-18-20-45-3-95-8-130-13 27-5 64-9 97-12 11 0 19-10 18-20-1-10-10-18-20-18z m-75-142c-1 0-2 0-3 0-1 0-36 4-71 10-66 11-86 21-86 41 0 22 21 30 104 41 43 6 87 10 88 10 11 1 20-7 21-17 1-11-7-20-18-21-39-4-83-9-115-14 24-5 54-9 82-12 11-1 18-11 17-21-1-10-9-17-19-17z m34-608c-1 0-2 0-3 0 0 0-44 5-87 12-83 13-104 21-104 42 0 20 19 29 86 40 35 5 69 9 70 9 11 1 21-6 22-17 1-11-7-20-18-21-25-3-53-7-76-11 32-5 74-11 112-16 11-1 18-11 17-21-1-10-10-17-19-17z m75-144c-1 0-1 0-2 0 0 0-47 5-92 11-84 12-109 22-109 45 0 24 31 33 91 41 37 5 73 8 75 8 11 1 20-7 21-17 1-11-7-20-18-21-32-2-67-7-94-11 35-7 85-13 130-17 10-1 18-11 17-21-1-10-9-18-19-18z m349 905c-11 0-19 8-20 18-1 10 7 19 18 20 0 0 23 3 50 6 11 1 21-7 22-17 1-11-6-21-17-22-28-3-51-5-52-5 0 0-1 0-1 0z m117 14c-10 0-18 6-20 16 0 3 0 6 1 9-1 3-1 6-1 10 2 10 13 17 23 15 16-3 34-7 35-24 1-19-20-23-35-26-1 0-2 0-3 0z m-62 21c-1 0-2 0-3 0-25 4-47 6-48 6-10 1-18 11-17 21 1 11 11 18 22 17 0 0 22-2 48-6 11-1 19-11 17-21-1-10-10-17-19-17z m62-51h-36c-4 0-8 1-12 3l-30 21c-9 6-11 18-5 27 6 9 18 11 27 5l26-18h10l0 11c0 11 9 19 20 20 0 0 0 0 0 0 11 0 20-9 20-20l0-30c0-5-2-10-6-14-4-3-9-5-14-5z m0 41c-11 0-19 9-19 19v11h-13l-18-15c-8-7-21-6-28 2-7 8-6 20 2 27l24 20c4 3 8 5 13 5h39c11 0 20-9 20-19v-31c0-10-9-19-20-19z m-141-164c-10 0-18 7-20 16-1 11 7 21 17 22 0 0 6 1 15 2 10 1 20-6 22-17 1-10-6-20-17-21-9-2-15-2-15-2 0 0-1 0-2 0z m78 10c-10 0-18 7-20 16 0 4 0 7 1 10-1 3-1 6-1 9 3 11 13 17 24 15 22-4 38-7 38-25 0-18-16-20-39-24-1 0-2-1-3-1z m-63 23c-1 0-2 0-3 0-6 1-9 2-9 2-11 1-18 11-16 22 1 10 11 17 22 16 0 0 4-1 9-2 11-1 18-11 16-22-1-9-10-16-19-16z m63-52h-35c-4 0-8 1-11 3l-30 21c-9 6-11 18-5 26 7 9 19 11 28 5l24-17h9v11c0 10 9 19 20 19s20-9 20-19v-30c0-11-9-19-20-19z m0 41c-11 0-19 8-19 19l0 12h-10l-23-16c-9-6-21-4-28 4s-4 21 5 27l28 20c3 2 7 4 12 4h35c11 0 20-9 20-20l0-31c0-11-9-19-20-19 0 0 0 0 0 0z m-71-627c-10 0-19 8-20 17-1 11 7 20 17 22 0 0 4 0 11 1 10 1 20-6 21-17 2-10-6-20-17-21-6-1-10-2-10-2-1 0-2 0-2 0z m71 10c-9 0-18 7-19 16-1 3 0 6 0 9-1 3-1 6 0 9 2 11 13 18 23 15 22-4 38-7 38-25 0-18-17-20-39-24-1 0-2 0-3 0z m-62 22c-1 0-2 0-3 1-9 1-15 2-15 2-11 2-18 12-17 22 2 10 12 18 23 16 0 0 6-1 15-2 11-2 18-12 16-23-1-9-10-16-19-16z m63-52h-36c-5 0-9 2-13 5l-27 21c-8 7-9 19-2 27 6 8 19 9 27 3l21-17h10l0 10c0 11 9 20 20 20 0 0 0 0 0 0 10 0 19-9 19-19l1-30c0-5-2-10-6-14-4-4-9-6-14-6z m0 41c-11 0-20 9-20 19v11h-12l-21-15c-9-6-21-4-27 5-6 9-4 21 5 27l26 18c3 2 7 3 11 3h38c11 0 20-8 20-19v-30c0-10-9-19-20-19z m-47-167c-10 0-19 8-20 17-1 11 7 21 17 22 1 0 22 2 46 5 11 2 21-6 22-16 2-11-6-21-17-22-25-3-46-5-46-6-1 0-2 0-2 0z m108 15c-9 0-17 7-19 16-1 3 0 7 1 10-1 3-2 6-1 9 2 11 13 17 23 15 16-3 33-6 34-23 2-19-19-23-34-26-1 0-2-1-4-1z m-62 22c-1 0-2 0-2 0-28 4-54 6-54 6-11 2-18 11-17 22 1 10 11 18 22 17 0 0 25-3 54-7 11-1 18-11 17-22-2-9-10-16-20-16z m63-51h-37c-4 0-8 1-11 4l-28 19c-8 6-10 18-4 27 6 8 19 10 27 4l23-15h10v10c0 11 9 19 20 19 11 0 19-8 19-19v-30c0-10-8-19-19-19z m0 41c-11 0-20 9-20 19v11h-11l-21-16c-8-7-20-5-27 3s-5 20 3 27l26 20c3 3 8 4 12 4h38c11 0 19-9 19-19v-30c0-10-8-19-19-19z" horiz-adv-x="2066" />
<glyph glyph-name="speaker" unicode="&#xe805;" d="M717 860c10 0 17-4 21-12l86-146c0 0 0-2 0-2l0-715c0-10-9-20-21-20l-608 0c-11 0-21 10-21 20l0 715c0 0 0 2 0 2l88 146c4 8 11 12 19 12l436 0m0 53l-434 0c-25 0-51-14-64-38l-88-146c-4-8-8-18-8-29l0-715c0-39 33-73 74-73l608 0c41 0 74 34 74 73l0 715c0 11-4 19-10 29l-86 146c-13 24-39 38-66 38z m33-243l-496 0c-16 0-27 12-27 26 0 13 11 25 27 25l496 0c14 0 25-12 25-25 0-14-9-26-25-26z m-248-652c-92 0-164 74-164 164 0 92 72 166 164 166 92 0 166-74 166-166 0-90-74-164-166-164z m0 277c-62 0-113-50-113-113 0-62 51-113 113-113 63 0 113 51 113 113 0 63-50 113-113 113z m0-154c23 0 43 18 43 41 0 24-20 43-43 43-23 0-43-19-43-43 0-23 20-41 43-41z m0 242c-62 0-113 51-113 112 0 62 51 113 113 113 63 0 113-51 113-113 0-61-50-112-113-112z m0 174c-33 0-61-27-61-62 0-34 28-61 61-61 33 0 61 27 61 61 0 35-28 62-61 62z" horiz-adv-x="1000" />
<glyph glyph-name="redo" unicode="&#xe806;" d="M611-150l0 334c-64-1-126-9-186-22-60-13-118-33-173-58-56-25-106-59-150-102-44-44-78-94-102-151 4 98 18 186 42 265 24 79 59 150 105 214 47 64 109 115 188 153 78 38 170 60 276 66l0 301 611-503-611-497" horiz-adv-x="1222" />
<glyph glyph-name="stage" unicode="&#xe807;" d="M941 854l0-375-31 14c-2 0-117 54-224 160-77 76-116 164-129 201l384 0m-496 0c-9-35-43-115-121-203-105-113-226-158-226-158l-37-12 0 373 384 0m-386-412l2-12 144-459-146 0 0 471m882 0l0-471-146 0 145 459 1 12m51 463l-986 0 0-987 986 0z m-732-934l-151 475c0 0 133 45 250 170 116 127 139 246 139 246 0 0 33-129 149-246 113-114 240-170 240-170l-149-475-478 0z m240-43c-14 0-25 12-25 25l0 208c0 15 11 27 25 27 14 0 25-12 25-27l0-208c0-13-11-25-25-25z m2 287c23 0 45 20 45 43 0 24-20 41-45 41-23 0-45-19-45-41 0-23 20-43 45-43z" horiz-adv-x="1000" />
<glyph glyph-name="undo" unicode="&#xe808;" d="M611-150l0 334c65-1 127-9 187-22 59-13 117-33 173-58 55-25 105-59 149-102 45-44 79-94 102-151-4 98-18 186-42 265-23 79-58 150-105 214-46 64-109 115-187 153-79 38-171 60-277 66l0 301-611-503 611-497" horiz-adv-x="1222" />
<glyph glyph-name="oval-table" unicode="&#xe809;" d="M301 670c0 41 35 59 68 59 33 0 69-18 69-59l0-74c9 2 19 2 31 2l0 72c0 59-49 90-100 90-51 0-99-31-99-90l0-111c9 4 19 8 31 12z m265 0c0 41 38 59 71 59 33 0 68-18 68-59l0-101c12-4 22-8 31-12l0 115c0 57-50 88-99 88-51 0-102-31-102-88l0-72c12 0 22-2 31-2z m-111-451c-4 0-6 0-10 0-2 0-5 0-7 2l0-66c0-41-38-59-71-59-31 0-68 18-68 59l0 92c0 0 0 0 0 0-4 1-6 1-10 3-2 0-4 0-6 2-2 0-6 2-8 2-2 2-3 2-5 2 0 0-2 2-2 2l0-105c0-57 50-88 99-88 51 0 102 31 102 88l0 64c-2 0-4 0-4 0-4 2-8 2-10 2z m268 37c-2-2-6-2-8-4-2-2-4-2-8-2 0 0-2-2-4-2l0-93c0-41-35-59-68-59-33 0-69 18-69 59l0 66c-1 0-3 0-5 0-2 0-6-2-8-2-4 0-6 0-8 0-4 0-8 0-10 0l0-64c0-57 51-88 102-88 49 0 99 31 99 88l0 107c-2-2-5-2-7-4-2-2-4-2-6-2z m183 256l-103 0c8-10 15-17 21-27 0-2 2-4 2-4l80 0c41 0 61-35 61-66 0-20-6-36-16-49-10-12-25-20-43-20l-76 0c-6-10-12-21-21-31l95 0c30 0 53 12 69 33 13 18 21 41 21 67 2 46-29 97-90 97z m-812-166c-41 0-61 33-61 67 0 17 6 35 16 46 12 14 25 20 45 20l80 0c6 12 14 21 23 31l-103 0c-28 0-51-10-69-31-13-18-21-41-21-68 0-49 31-98 90-98l96 0c-8 10-16 21-20 31l-76 0z m291-119c4 0 6-2 10-2-4 0-6 0-10 2z m17-4c2 0 6 0 8 0-2 0-6 0-8 0z m178-2c2 0 6 2 8 2-2 0-6-2-8-2z m-228 12c4-2 5-2 9-2-4 0-5 0-9 2z m68-12c4 0 6 0 10 0-4 0-6 0-10 0z m-53 8c4 0 6 0 10-2-4 0-6 2-10 2z m-31 8c4-2 6-2 10-2-4 0-6 0-10 2z m500 230c-2 4-6 8-8 14-2 0-2 2-4 4 4-6 8-12 12-18z m-516-226c2-2 6-2 8-2-2 0-6 0-8 2z m342-6c2 2 6 2 8 2-2 0-6 0-8-2z m31 10c2 0 4 0 6 2-2-2-4-2-6-2z m-15-4c2 0 6 0 8 2-2-2-4-2-8-2z m-108-20c-4 0-5 0-7-2 2 0 2 0 3 0 2 2 2 2 4 2z m77 12c1 0 5 0 7 2-2-2-6-2-7-2z m-34-6c2 0 4 0 8 0-2 0-6 0-8 0z m-15-4c2 0 4 2 8 2-4 0-6-2-8-2z m33 6c2 0 4 0 8 0-4 0-6 0-8 0z m-326 16c4 0 6-2 10-2-4 0-6 2-10 2z m230-26c-4 0-6 0-8 0 2-2 4 0 8 0z m205 45c0-2-2-2-4-2 2 0 4 0 4 2z m-482 0c-4 2-8 4-12 6 4-2 8-4 12-6z m197-45c2 0 6 0 10-2-4 2-8 2-10 2z m-10 0c-2 0-5 0-7 2 2-2 5-2 7-2z m-170 37c4-2 6-2 10-4-4 2-6 2-10 4z m-11 6c2-2 4-2 6-2 0 0 0-2 2-2-2 0-6 2-8 4z m25-12c4 0 8-2 10-2-2 0-6 2-10 2z m418 0c4 0 6 0 8 2-2 0-4-2-8-2z m16 6c2 0 4 0 6 2-2-2-4-2-6-2z m113 96c4 6 6 12 8 18 2 11 4 19 4 29 0 4 0 6 0 10 0 4 0 7 0 11 0 16-6 32-12 47-4 6-8 12-12 18-6 10-13 19-21 27-14 14-31 26-49 37-8 2-14 6-20 8-9 4-19 10-31 12-41 15-88 23-137 29-9 0-19 2-31 2-12 0-23 0-37 0-10 0-19 0-31 0-10 0-22-2-31-2-49-4-96-14-137-27-12-4-22-8-31-12-8-4-16-6-24-10-19-11-37-23-49-37-9-10-17-19-25-31-27-43-27-90-6-135 8-10 14-21 22-31 15-16 35-31 56-45 4-2 10-4 14-6 2 0 4-2 4-2 4 0 6-2 8-2 2-2 4-2 5-2 2-2 6-2 8-4 2 0 4 0 6-2 2 0 6-2 10-2 0 0 0 0 0 0 2-2 4-2 6-2 2-1 6-3 8-3 2-2 4-2 7-2 2-2 6-2 8-2 2-2 6-2 8-2 4-2 6-2 10-2 2-2 4-2 6-2 4-2 6-2 9-2 2 0 4-2 8-2 2 0 6 0 10-2 2 0 4 0 8 0 2 0 6-2 8-2 4 0 5 0 7 0 4 0 6-2 10-2 2 0 6 0 8 0 4 0 6-2 10-2 2 0 6 0 8 0 4 0 5-2 9-2 2 0 6 0 8 0 4 0 8 0 10-2 2 0 4 0 4 0 2 0 4 0 4 0 4 0 6 0 10 0 1 0 5 0 7 0 2 0 6 0 8 0 0 0 0 0 2 0 4 0 6 0 10 0 2 0 6 0 8 0 2 0 6 0 7 0 4 0 6 0 8 0 0 0 2 0 2 0 2 0 6 0 8 0 4 0 6 0 8 0 4 0 6 2 10 2 2 0 4 0 7 0 2 0 6 2 10 2 2 0 4 0 8 0 4 0 6 2 10 2 2 0 4 0 8 0 2 0 5 2 7 2 4 0 6 0 8 0 4 2 6 2 10 2 4 0 6 2 8 2 4 0 6 0 10 2 2 0 3 0 5 2 4 0 6 0 10 2 2 0 4 0 8 2 2 0 6 2 8 2 2 0 4 0 6 2 4 0 6 2 8 2 1 2 5 2 7 3 2 0 2 0 4 2 0 0 2 0 4 0 2 2 4 2 6 2 4 2 6 2 10 4 2 2 2 2 4 2 2 2 6 2 7 4 0 0 0 0 0 0 2 2 4 2 4 2 4 2 8 4 12 6 14 8 24 14 33 21 8 6 14 10 20 16 2 2 4 6 6 8 9 10 15 19 21 31 6 2 8 4 8 6z m-98-55c-56-31-142-49-238-49-94 0-184 18-238 49-51 26-80 67-80 112 0 43 29 84 80 111 54 31 144 49 238 49 94 0 184-18 238-49 51-27 80-68 80-111 0-43-29-84-80-112z" horiz-adv-x="1000" />
<glyph glyph-name="doubledoor" unicode="&#xe80a;" d="M428 858l0-891-362 0 0 891 362 0m51 53l-463 0 0-995 463 0 0 995z m-131-526c19 0 37 16 37 35 0 18-18 36-37 36-22 0-37-18-37-36-2-19 15-35 37-35z m586 473l0-891-362 0 0 891 362 0m50 53l-462 0 0-995 462 0z m-332-526c22 0 38 16 38 35 0 18-16 36-38 36-19 0-37-18-37-36 0-19 18-35 37-35z" horiz-adv-x="1000" />
<glyph glyph-name="rocketship" unicode="&#xe80b;" d="M531 688l-241-241-145 0-145-193c0 0 155 43 244 21l-244-311 319 248c43-103-29-248-29-248l193 145 0 144 241 242 49 241-242-48 0 0z" horiz-adv-x="773" />
<glyph glyph-name="conversion" unicode="&#xe80c;" d="M273-150c-83 0-150 67-150 150s67 150 150 150c4 0 9 0 13-1l161 269c-15 24-24 52-24 82 0 83 67 150 150 150s150-67 150-150c0-30-9-58-25-82l162-269c4 1 8 1 13 1 3 0 6 0 10 0l266 466c-17 24-26 53-26 84 0 83 67 150 150 150s150-67 150-150-67-150-150-150c-4 0-7 0-10 0l-266-465c16-24 26-54 26-85 0-83-67-150-150-150s-150 67-150 150c0 30 9 58 24 82l-161 269c-4-1-9-1-13-1-5 0-9 0-13 1l-162-269c16-24 25-52 25-82 0-83-67-150-150-150l0 0z" horiz-adv-x="1545" />
<glyph glyph-name="card-table" unicode="&#xe80d;" d="M867 860l0-895-736 0 0 895 736 0m55 53l-844 0 0-1001 844 0z m-424-752c-72 0-121 0-121 45 0 17 14 29 25 42 6 4 12 10 18 18 0 0 0 0 2 2-37 0-72 23-92 63-23 44-17 101 16 146 41 57 92 113 119 143 17 19 51 19 68 0 22-24 76-84 119-143 34-45 39-102 16-148-20-38-53-61-92-61l2-2c8-8 12-12 18-18 11-13 25-25 25-42 0-45-49-45-123-45z m-53 54c12-2 30-2 53-2 25 0 43 2 55 2-4 4-10 10-16 16l-2 2c-15 17-33 39-21 64 6 14 21 22 47 22 2 0 5 0 9 0l4 0c20 0 37 13 47 33 16 29 10 64-12 94-39 54-87 109-111 135-25-30-72-83-109-135-22-30-26-63-10-92 10-22 29-35 49-33 4 0 8 0 10 0 25 0 39-8 46-24 10-23-7-47-23-64-6-8-12-14-16-18z" horiz-adv-x="1000" />
<glyph glyph-name="chair-single" unicode="&#xe80e;" d="M768-86c-16 0-28 12-28 28l0 328-482 0 0-328c0-16-12-28-27-28-14 0-28 12-28 28l0 353c0 6 2 10 4 14 6 8 14 14 24 14l535 0c15 0 27-12 27-26 0-2 0-4 0-6l0-349c2-16-12-28-25-28z m-266 944c78 0 143-65 143-143l0-267-291 0 0 267c0 78 64 143 140 143l8 0m0 53l-8 0c-107 0-193-88-193-196l0-320 396 0 0 320c0 108-88 196-195 196z" horiz-adv-x="1000" />
<glyph glyph-name="firehose" unicode="&#xe80f;" d="M33 155c-13 0-25 13-25 27l0 606c0 15 12 25 25 25 16 0 28-12 28-25l0-606c0-14-12-27-28-27z m180 568l0-672-53 0 0 672 53 0m53 53l-159 0 0-778 159 0z m138-53l0-457-50 0 0 457 50 0m53 53l-156 0 0-563 156 0z m139-53l0-457-51 0 0 457 51 0m52 53l-158 0 0-563 158 0z m79-608c-14 0-26 12-26 26l0 607c0 14 12 26 26 26 15 0 27-12 27-26l0-607c0-14-12-26-27-26z m117 299l-106 0c-15 0-25 12-25 26 0 15 12 27 25 27l106 0c13 0 25-12 25-27 0-14-12-26-25-26z m103-13c26 0 45 19 45 41 0 23-19 43-45 43-23 0-43-20-43-43 0-22 20-41 43-41z" horiz-adv-x="1000" />
<glyph glyph-name="checkin" unicode="&#xe810;" d="M629 745c4-4 10-6 14-8 23-6 43-18 56-37l108 0 0-745-614 0 0 745 108 0c14 19 31 31 55 37 5 2 9 4 13 8l-219 0 0-833 702 0 0 833z m-328-45c-16-18-24-43-24-69 0-27 22-47 47-47l352 0c25 0 47 22 47 49 0 26-8 49-24 69-13 17-35 31-56 37-4 0-10 4-14 6-12 7-18 19-18 33l0 23c0 63-48 114-111 114l-2 0c-62 0-111-51-111-114l0-25c0-12-6-24-18-31-4-4-10-6-13-8-22-4-41-18-55-37z m131 76l0 25c0 37 29 69 66 69l4 0c35 0 66-30 66-69l0-23c0-39 28-71 65-82 27-6 47-31 47-63 0-4-2-6-4-6l-352 0c-2 0-4 2-4 6 0 30 20 57 47 63 37 10 65 41 65 80z m195-301c-18 0-33-8-47-19l-125-125-35 35c-14 11-29 19-47 19-17 0-33-8-47-19-11-12-17-30-17-47 0-16 6-33 17-45l92-92c10-10 23-16 37-16 16 0 29 6 39 16l182 182c12 11 17 29 17 45 0 17-5 35-17 47-16 13-31 19-49 19z m16-80l-182-182c-2-2-6-2-8-2 0 0-4 0-6 2l-91 92c-4 4-6 8-6 14 0 6 2 12 6 15 3 4 9 6 15 6 6 0 12-2 16-6l66-66 156 156c8 8 24 8 32 0 4-4 6-8 6-15 0-6 0-10-4-14z" horiz-adv-x="1000" />
<glyph glyph-name="half-circle-table" unicode="&#xe811;" d="M141 342l-69 69c-29 33-23 64-13 87 17 42 62 73 105 73 24 0 43-10 61-28l70-72c14 6 29 12 47 18l-82 86c-28 27-61 43-96 43-60 0-125-43-148-102-22-49-12-98 23-137l76-80c6 14 16 28 26 43z m843 174c-23 59-87 100-148 100-37 0-70-14-96-43l-84-88c18-6 34-12 47-20l70 76c18 20 40 28 63 28 43 0 88-29 105-71 10-23 16-54-13-87l-74-79c7-15 15-29 23-42l86 91c35 37 43 88 21 135z m-587-14l0 118c0 58 52 86 103 86 49 0 104-28 104-86l0-120c15-3 31-7 46-13l0 133c0 87-76 132-148 132-74 0-150-45-150-132l0-129c13 4 29 9 45 11z m457-170c-34 51-82 100-151 133-13 8-29 14-47 20-2 0-6 2-8 2-15 6-31 10-46 13-34 6-71 10-110 10-35 0-66-4-95-8-16-4-34-7-47-11-4 0-6-2-10-2-18-6-33-12-47-18-70-31-119-80-154-131-10-13-20-27-26-41-58-113-58-228-58-228l875 0c0 0 0 109-53 217-8 15-16 29-23 44z m-748-212c13 103 80 343 386 343 309 0 373-240 389-343z" horiz-adv-x="1000" />
<glyph glyph-name="circular-shape" unicode="&#xe812;" d="M500 848c240 0 436-195 436-435 0-241-196-436-436-436-240 0-435 195-435 436 0 240 195 435 435 435m0 53c-269 0-488-219-488-488 0-270 219-489 488-489 270 0 488 219 488 489 0 269-218 488-488 488z" horiz-adv-x="1000" />
<glyph glyph-name="envelope" unicode="&#xe813;" d="M140 655c27 0 38-33 17-49l-399-296c-17-12-40-12-56 0l-398 297c-21 16-10 49 17 49l819 0 0-1z m36-105c19 14 46 1 46-22l0-437c0-31-26-57-58-57l-868 0c-32 0-58 25-58 57l0 438c0 23 27 36 46 22l405-311c24-18 57-18 81 0l406 310 0 0z" horiz-adv-x="1000" />
<glyph glyph-name="coat-rack" unicode="&#xe814;" d="M523 780c10-2 22-6 34-10 43-20 66-57 72-105 2-14-2-24-12-34-8-8-17-13-31-9-14 3-20 13-21 27-2 4-2 8-2 12-4 29-24 46-51 50-26 2-49-15-57-39-8-27 2-56 24-70 11-6 23-12 31-20 17-15 25-33 23-56 0 0 0-2 0-2 0-12-4-29 2-39 6-10 22-14 31-20 122-74 241-150 362-222 31-20 58-43 64-84l0-24c-2-2-2-6-2-8-6-35-23-60-54-74-10-4-20-6-30-8l-814 0c-2 0-4 2-6 2-23 4-43 16-59 37-7 12-11 28-17 41l0 34c0 2 0 2 2 2 4 33 21 56 49 72 132 82 265 164 396 244 10 6 14 12 14 23 0 16-2 28-16 36-8 5-15 11-23 17-37 29-57 76-45 123 11 51 39 88 90 102 4 0 5 2 9 2z m-25-664c129 0 256 0 383 0 4 0 8 0 12 0 11 2 21 9 25 23 4 14-4 26-21 37-129 78-258 158-387 239-8 3-14 3-22 0-93-61-189-118-285-178-35-22-72-43-107-65-8-6-16-11-18-23-2-18 12-33 31-33 129 0 258 0 389 0z" horiz-adv-x="1000" />
<glyph glyph-name="heatlamp" unicode="&#xe815;" d="M500 827c164 0 289-106 363-188l-726 0c74 82 199 188 363 188m0 62c-307 0-488-312-488-312l976 0c0 0-181 312-488 312z m-137-715c-6 0-13 2-19 8l-106 90 0 244c0 18 14 31 32 31 15 0 31-13 31-31l0-215 84-72c12-10 13-31 2-43-4-8-14-12-24-12z m272 0c-10 0-18 4-26 10-9 14-9 33 4 45l84 72 0 215c0 16 14 31 32 31 15 0 31-15 31-31l0-244-108-90c-4-6-11-8-17-8z m-139-238c-15 0-29 14-29 31l0 147c0 17 14 31 29 31 18 0 31-14 31-31l0-147c0-17-11-31-31-31z m69 289l9-41-152 0 10 41 133 0m48 65l-228 0-41-167 310 0z m-54 220c-14-41 50-84 35-131-18-43-61-56-86-60-6 0-12 6-8 10 12 9 27 27 33 41 16 41-52 70-35 123 12 35 47 56 76 60 4 2 12-4 8-8-8-9-17-21-23-35z m-96-33c-14-33 41-68 25-107-11-38-48-49-68-51-6-2-10 4-6 8 10 9 24 21 27 35 12 35-43 58-27 101 10 30 37 47 61 51 4 0 9-4 6-8-6-8-14-17-18-29z" horiz-adv-x="1000" />
<glyph glyph-name="serp" unicode="&#xe816;" d="M500 610c244 0 398-143 449-199l-164-178c-41 41-131 105-285 105-152 0-246-66-289-107l-160 180c49 56 203 199 449 199m0 35c-324 0-496-236-496-236l207-231c0 0 88 125 289 125 205 0 283-125 283-125l213 231c0 0-172 236-496 236z" horiz-adv-x="1000" />
<glyph glyph-name="a-6_intruder_fullwings" unicode="&#xe817;" d="M221 272l362-422c-8 0-18 0-31 1-40 4-61 18-67 28-2 3-40 77-115 220-8 0-24 2-41 4-42 5-55 10-55 22 0 12 15 16 47 21 8 1 16 2 23 3l-11 21c-8 1-23 2-38 4-39 6-51 11-51 23 0 12 15 17 43 21 6 1 12 1 18 2l-59 42h-4c-3-1-8-3-12-5-4-1-9-1-12 1-2 1-3 2-4 4-8 0-17 0-24 0-11 1-42 2-43 19 0 1 0 2 0 3-14 1-40 4-66 10-55 13-82 31-82 55 0 25 27 42 81 54 26 6 52 9 65 10v3c0 16 24 19 35 20 13 1 26 2 27 2h5c0 0 1 1 2 2 3 2 7 3 11 2 3-1 11-3 14-4h5l59 42c-5 1-11 2-18 2-28 5-43 9-43 21 0 14 18 18 52 23 15 2 29 4 37 4l11 22c-6 1-15 2-23 3-36 5-46 10-46 21 0 12 13 17 55 22 16 3 32 4 41 5 74 143 113 218 115 222 6 11 28 19 64 23 27 3 43 1 44 1l10-1-1-10c0 0-21-133-39-242l10-1 11 9h33v-16c5-2 10-5 10-11 0-7-5-10-10-12v-18h-30l-16 11-14-1c-1-9-2-17-4-24l1 0h32v-17c7-1 12-4 12-11 0-7-5-10-12-12v-17h-31l-9 7c-3-14-4-22-4-24-1-5 0-9 0-12 6 0 15-1 20-1 11-2 16-10 16-19 0-1 1-5 1-11 1-1 4-3 6-4 8 0 56-4 86-7 28-2 89-8 108-10 18 25 91 133 101 146 12 15 26 18 33 19 0 0 1 0 2 1 6 1 30 2 35 2l13 0-39-187c10-1 26-3 41-5 16-2 28-3 37-5 5 0 9-1 12-1 4-1 13-3 13-12 0-8-8-10-13-11-3 0-7-1-12-2-9-1-21-3-36-5-16-2-31-4-41-6l43-188-13 0c-5 1-26 1-31 1l-1 0c-18 2-32 9-41 20-10 13-87 123-104 149-18-2-73-8-106-12-34-4-75-8-87-9-2-1-5-3-5-3 0-7-1-11-2-14 0-8-5-16-15-17-5-1-13-1-20-2 0-3 0-8 1-13 0-2 1-10 3-24l10 7h31v-16c7-2 12-5 12-12 0-7-5-10-12-12v-17h-32l-1 1c1-8 2-16 4-24l14-1 16 10h30v-17c5-2 9-5 9-12 0-6-4-9-9-11v-16h-33l-11 9-10-1c17-106 41-242 41-243l2-11-11-1c-1 0-5 0-13 0z m98-147c16-3 38-5 58-6l6-1 3-5c99-190 116-222 117-224 2-3 16-14 51-17 12-2 22-2 29-2-7 37-27 152-41 242l-2 11 10 1-10 1-1 8c-3 19-6 37-9 52l-2 18c-5 29-6 34-6 35-2 16 1 28 1 28l2 8 8 0c0 0 15 1 23 2l1 1c0 0 1 3 2 11 1 16 18 21 20 22l0 0 0 0c1 0 50 4 90 9 39 5 111 13 112 13l6 1 3-5c1-2 96-139 107-153 8-11 22-12 27-12l1 0c2-1 9-1 16-1l-42 185 11 1c12 2 24 3 36 5-12 1-25 3-37 4l-11 2 38 183c-8-1-16-1-18-2-1 0-2 0-3 0-6-1-13-2-20-11-10-14-102-150-103-151l-3-5-7 1c0 0-81 8-114 11-32 3-86 7-86 7l-1 0-1 0c-2 1-21 5-22 22-1 8-1 11-2 11-8 1-24 2-24 2l-6 1-3 5c0 2-4 12-2 29 0 1 1 7 5 36l3 17c2 15 5 34 8 53l1 8 11 1-10 1 1 11c15 91 33 204 39 240-7 0-17 0-29-1-42-5-48-13-48-14-2-3-44-84-118-226l-3-5-5 0c-20-2-43-4-59-7 12-2 28-4 42-5l16-1-31-59-6-1c-19-1-40-4-55-6 11-2 26-4 39-5l15-1-15-29-71-52h-15l-1 1c0 0-3 0-6 1l1-3-11 1h-12c-17 0-34-2-41-5v-18l-10-1c0 0-36-2-71-10-41-9-65-21-65-34 0-13 24-26 65-35 36-8 72-11 73-11l9 0 0-10c0-2 0-5 0-7 3-1 10-3 23-3 10-1 20-1 31-1l10 0 0-2c2 0 3 1 4 1l2 1h16l71-51 15-29-15-1c-13-1-27-2-39-4 16-3 36-5 55-7l6 0 30-59-15-1c-14-1-30-3-42-5z m273-8h5v16h-3l-11-7 9-9z m-30 71h4v16h-3l-11-8 10-8z m-1 308h4v17h-4l-11-9 11-8z m31 72h3v16h-4l-10-9 11-7z" horiz-adv-x="1025" />
<glyph glyph-name="not-checked" unicode="&#xe818;" d="M866 850l-728 0c-76 0-138-62-138-138l0-724c0-76 62-138 138-138l728 0c76 0 137 62 137 138l0 724c0 76-61 138-137 138l0 0z m0-69c37 0 69-31 69-69l0-724c0-38-32-69-69-69l-728 0c-38 0-69 31-69 69l0 724c0 38 31 69 69 69l728 0" horiz-adv-x="1003" />
<glyph glyph-name="menu" unicode="&#xe819;" d="M45 850c-25 0-45-20-45-45l0-53c0-25 20-45 45-45l1182 0c26 0 46 21 46 45l0 53c0 25-20 45-46 45l-1182 0z m0-429c-25 0-45-20-45-45l0-52c0-25 20-45 45-45l1182 0c26 0 46 20 46 45l0 52c0 25-20 45-46 45l-1182 0z m0-428c-25 0-45-21-45-45l0-53c0-25 20-45 45-45l1182 0c26 0 46 20 46 45l0 53c0 25-20 45-46 45l-1182 0" horiz-adv-x="1273" />
<glyph glyph-name="end-table" unicode="&#xe81a;" d="M743 518l-714 0c-15 0-27 12-27 28 0 15 12 27 27 27l714 0c16 0 28-12 28-27 0-16-12-28-28-28z m-644-412c-15 0-28 12-28 28l0 388c0 15 13 27 28 27s28-12 28-27l0-388c1-16-13-28-28-28z m575 0c-15 0-28 12-28 28l0 388c0 15 13 27 28 27s28-12 28-27l0-388c0-16-13-28-28-28z" horiz-adv-x="773" />
<glyph glyph-name="sofa-table" unicode="&#xe81b;" d="M743 474l-728 0c-11 0-19 9-19 20s8 19 19 19l728 0c11 0 19-8 19-19s-8-20-19-20z m-76-105l-575 0c-11 0-20 9-20 20s9 19 20 19l574 0c11 0 19-8 19-19s-8-20-18-20z m-581-182c-11 0-19 9-19 19l0 271c0 11 8 19 19 19s19-8 19-19l0-271c0-10-8-19-19-19z m586 0c-11 0-19 9-19 19l0 271c0 11 8 19 19 19s19-8 19-19l0-271c0-10-8-19-19-19z" horiz-adv-x="773" />
<glyph glyph-name="not-checked-in" unicode="&#xe81c;" d="M759-78c-76-46-164-72-259-72-276 0-500 224-500 500 0 276 224 500 500 500 276 0 500-224 500-500 0-95-26-183-72-259-21 18-48 29-78 29-66 0-120-54-120-120 0-30 11-57 29-78m-23 193l-456 0 0 54 152 98 0 37c-9 0-18 10-26 29-8 19-12 34-12 47l0 76c0 32 11 58 33 81 23 22 50 33 81 33 31 0 58-11 81-33 22-23 33-49 33-81l0-76c0-13-4-28-12-47-8-19-17-29-26-29l0-37 152-98 0-54m79 236c130 0 236-105 236-236 0-130-106-236-236-236-130 0-236 106-236 236 0 131 106 236 236 236m-40-210l-48 48-82-82 130-130 192 193-82 82-110-111 0 0z m-115 232c43 25 89 37 140 37 51 0 98-12 141-37 42-25 77-59 102-102 25-43 37-90 37-141 0-51-12-97-37-141-25-43-60-77-102-102-43-25-90-37-141-37-51 0-97 12-140 37-43 25-77 59-102 102-25 44-38 90-38 141 0 51 13 98 38 141 25 43 59 77 102 102 0 0-43-25 0 0l0 0" horiz-adv-x="1080" />
<glyph glyph-name="objects" unicode="&#xe81d;" d="M601 461l-182 0 0 269c0 106 182 106 182 0l0-269m0 0l-182 0 0 269c0 106 182 106 182 0l0-269z m-206-20l0-179-274 0c-108 0-108 179 0 179l274 0 0 0m0 0l0-179-274 0c-108 0-108 179 0 179l274 0 0 0z m134 44l123-132c0 0 151 137 201 182 80 72-43 204-123 132-50-45-201-182-201-182l0 0m0 0l123-132c0 0 151 137 201 182 80 72-43 204-123 132-50-45-201-182-201-182l0 0z m72-246l-182 0 0-269c0-106 182-106 182 0l0 269m0 0l-182 0 0-269c0-106 182-106 182 0l0 269z m-108-26l-121 133c0 0-153-134-204-179-80-71 41-204 122-133 50 44 203 179 203 179l0 0m0 0l-121 133c0 0-153-134-204-179-80-71 41-204 122-133 50 44 203 179 203 179l0 0z m-1 273l-123-132c0 0-152 137-202 182-79 72 44 204 123 132 51-45 202-182 202-182l0 0m0 0l-123-132c0 0-152 137-202 182-79 72 44 204 123 132 51-45 202-182 202-182l0 0z m35-272l121 134c0 0 153-135 204-180 81-70-41-204-121-133-51 45-204 179-204 179l0 0m0 0l121 134c0 0 153-135 204-180 81-70-41-204-121-133-51 45-204 179-204 179l0 0z m98 227l0-179 274 0c108 0 108 179 0 179l-274 0 0 0m0 0l0-179 274 0c108 0 108 179 0 179l-274 0 0 0z m181-89c0-161-132-292-296-292-164 0-297 131-297 292 0 161 133 292 297 292 164 0 296-131 296-292l0 0m-293 315c-172 0-311-139-311-311 0-172 139-311 311-311 172 0 311 139 311 311 0 172-139 311-311 311l0 0z m0-80c127 0 231-104 231-231 0-127-104-231-231-231-127 0-231 104-231 231 0 127 104 231 231 231" horiz-adv-x="1020" />
<glyph glyph-name="love-seat" unicode="&#xe81e;" d="M428 608c2 0 2 0 4-2 15-20 15-92 6-156l-327 0c-7 56-9 132 8 154 4 4 6 4 10 4l299 0m0 37c-88 0-203 0-299 0-96 0-49-230-49-230l387 0c2 0 49 230-39 230z m8-293l0-35-315 0 0 35 315 0m37 37l-387 0 0-109 387 0z m-450-209c-9 0-17 8-17 18l0 265c0 10 8 18 17 18 10 0 18-8 18-18l0-265c0-10-8-18-18-18z m856 428c2 0 2 0 4-2 15-20 15-92 6-156l-326 0c-8 56-10 132 7 154 4 4 6 4 10 4l299 0m0 37c-90 0-203 0-299 0-96 0-49-230-49-230l387 0c2 0 49 230-39 230z m4-293l0-35-315 0 0 35 315 0m37 37l-389 0 0-109 389 0z m57-209c-10 0-18 8-18 18l0 265c0 10 8 18 18 18 9 0 17-8 17-18l0-265c0-10-8-18-17-18z m-59 39l-822 0c-10 0-18 8-18 18 0 11 8 19 18 19l822 0c10 0 18-8 18-19 0-10-8-18-18-18z" horiz-adv-x="1000" />
<glyph glyph-name="high-boy" unicode="&#xe81f;" d="M500 856c117 0 229-16 297-43 51-22 84-51 84-78 0-24-33-55-84-76-70-28-178-43-295-43-117 0-229 17-297 43-51 21-84 52-84 76 0 27 33 56 84 76 67 29 178 45 295 45m0 57c-119 0-236-16-316-49-159-63-159-192 0-256 80-31 199-47 318-47 117 0 234 16 314 47 161 66 159 193 0 256-80 33-199 49-316 49z m0-1001c-16 0-27 12-27 28l0 521c0 16 11 28 27 28 16 0 27-12 27-28l0-521c0-16-11-28-27-28z m232 0c-7 0-13 4-19 8l-225 221c-9 10-9 27 0 39 12 10 30 10 39 0l225-221c10-11 10-27 0-39-6-4-14-8-20-8z m-464 0c-6 0-14 4-20 8-12 12-12 30 0 39l223 221c11 10 29 10 39 0 12-12 12-29 0-39l-223-221c-6-4-12-8-19-8z" horiz-adv-x="1000" />
<glyph glyph-name="coffee-table" unicode="&#xe820;" d="M943 682l0-111-884 0 0 111 884 0m51 51l-988 0 0-213 988 0 0 213z m-96-318l-796 0c-14 0-28 11-28 25 0 16 14 27 28 27l796 0c14 0 28-11 28-27 0-14-12-25-28-25z m-718-323c-16 0-28 12-28 26l0 304c0 14 12 26 28 26 13 0 25-12 25-26l0-304c0-16-12-26-25-26z m640 0c-13 0-25 12-25 26l0 304c0 14 12 26 25 26 16 0 28-12 28-26l0-304c0-16-12-26-28-26z" horiz-adv-x="1000" />
<glyph glyph-name="av-cart" unicode="&#xe821;" d="M881 854l0-748-768 0 0 748 768 0m57 59l-883 0 0-864 883 0 0 864z m-844-442l826 0 0-56-826 0z m808-537c-21 0-41 18-41 39 0 21 20 39 41 39 24 0 43-18 43-39 0-21-19-39-43-39z m0-20c-33 0-60 26-60 59 0 33 27 59 60 59 36 0 63-26 63-59 0-31-29-59-63-59z m0 79c-11 0-21-8-21-20 0-10 10-20 21-20 12 0 24 10 24 20 0 12-12 20-24 20z m-804-61c-24 0-43 18-43 39 0 20 19 39 43 39 21 0 41-19 41-39 0-21-20-39-41-39z m0-20c-35 0-63 26-63 59 0 33 28 59 63 59 33 0 60-26 60-59 0-31-27-59-60-59z m0 79c-12 0-24-8-24-20 0-10 10-19 24-19 11 0 21 9 21 19 0 12-10 20-21 20z" horiz-adv-x="1000" />
<glyph glyph-name="coral" unicode="&#xe822;" d="M662-86l-326 0c-51 0-90 24-90 59l0 268 506 0 0-268c0-35-37-59-90-59z m-367 280l0-221c2-2 16-12 43-12l326 0c26 0 39 10 41 14l0 221-410 0z m465 166l0-47-520 0 0 47 520 0m47 47l-616 0 0-141 616 0z m-299 19c-14 0-24 10-24 24l0 136c0 12 10 24 24 24 14 0 23-12 23-24l0-136c0-14-9-24-23-24z m-16 211c-4 0-8 2-11 4l-149 90c-10 8-14 21-8 33 8 12 22 16 33 8l149-90c12-8 16-21 8-33-6-8-12-12-22-12z m-158 106c-14 0-23 11-23 25l0 105c0 12 9 24 23 24 14 0 23-12 23-24l0-107c0-12-9-23-23-23z m10-14c-2 0-4 0-4 0l-92 16c-12 2-19 15-17 27 1 14 13 21 27 19l90-15c13-2 21-16 19-28-4-11-13-19-23-19z m174-229c-2 0-2 0-4 0l-172 26c-14 2-24 15-22 27 2 14 16 22 28 20l172-26c13-2 23-13 19-27 0-12-10-20-21-20z m-248-25c-8 0-16 4-20 12-8 11-4 25 8 31l80 49c12 8 25 4 33-8 8-10 2-25-8-33l-80-49c-6 0-10-2-13-2z m246 16c-8 0-16 4-22 13-6 10-2 26 10 32l94 50c11 6 25 2 33-9 6-10 2-26-10-32l-94-50c-4-2-7-4-11-4z m50 275c-7 0-13 2-17 8l-65 76c-7 10-5 25 4 33 10 8 26 6 34-4l62-76c8-10 8-25-4-33-4-2-10-4-14-4z m-232-228c-10 0-19 5-21 15l-30 82c-4 12 4 26 16 31 12 4 25-3 29-15l29-82c4-12-3-26-15-29-2 0-4-2-8-2z m322 85c-4 0-8 0-11 2l-149 92c-12 6-15 20-8 33 6 10 22 14 34 8l148-92c10-7 14-21 8-33-6-6-14-10-22-10z m88-121c-6 0-13 2-17 10l-90 121c-8 10-4 24 6 33 9 8 25 4 33-5l88-121c8-12 6-26-4-34-4-4-10-4-16-4z m-72 121c-10 0-18 4-22 10-5 12-2 26 8 33l74 45c12 8 28 4 34-7 7-12 4-26-8-34l-74-45c-4-2-8-2-12-2z m-164-62c-14 0-26 12-26 25l0 151c0 13 12 23 26 23 12 0 23-10 23-23l0-151c0-13-11-25-23-25z m0 160c-10 0-16 4-22 10-5 12-4 27 8 33l217 145c12 7 25 4 33-8 8-10 4-26-8-33l-216-143c-4-4-8-4-12-4z m236 45c-4 0-8 2-12 4l-74 45c-10 6-13 21-8 33 8 10 22 14 34 8l74-45c12-8 15-21 8-33-4-8-12-12-22-12z" horiz-adv-x="1000" />
<glyph glyph-name="image" unicode="&#xe823;" d="M910 801l-820 0c-47 0-86-37-86-82l0-613c0-45 39-82 86-82l820 0c47 0 86 37 86 82l0 613c0 45-39 82-86 82z m43-695c0-24-19-41-43-41l-822 0c-23 0-43 17-43 41l0 613c0 24 20 41 43 41l822 0c24 0 43-17 43-41z m-88 611l-730 0c-28 0-49-21-49-47l0-521c0-26 21-47 49-47l730 0c28 0 49 21 49 47l0 521c0 26-21 47-49 47z m-730-41l730 0c4 0 6-2 6-6l0-484-221 254c-17 21-52 21-72 0l-19-25c-4-4-10-4-14 0l-78 89c-24 26-67 26-88 0l-252-293 0 459c2 4 4 6 8 6z m-6-529l283 330c6 8 16 8 22 0l78-90c19-23 58-23 80 0l23 29 239-275-719 0c-4 2-6 4-6 6z m617 324c4 0 8 0 12 2 21 2 41 12 55 29 13 18 19 39 15 59-4 43-45 76-92 70-21-2-41-13-54-29-14-18-20-39-18-59 6-41 41-72 82-72z m-29 104c6 9 15 13 25 15 2 0 4 0 6 0 20 0 37-15 39-35 2-10-2-19-8-27-6-8-15-14-25-14-23-4-43 12-47 33-2 10 2 20 10 28z" horiz-adv-x="1000" />
<glyph glyph-name="rect-trash" unicode="&#xe824;" d="M770 567l0-590-86 0 0 590 86 0m-153 0l0-590-86 0 0 590 86 0m-148 0l0-590-86 0 0 590 86 0m-153 0l0-590-85 0 0 590 85 0m516 64l-662 0 0-717 662 0z m35 55l-732 0c-20 0-33 14-33 33 0 18 13 31 33 31l732 0c18 0 31-13 31-31 0-17-13-33-31-33z m-183 12l-346 0 0 215 346 0z m-284 64l219 0 0 86-219 0z" horiz-adv-x="1000" />
<glyph glyph-name="seating-view" unicode="&#xe825;" d="M0-150l176 0 0 1000-176 0 0-1000z m4 276l720 0 0 176-720 0 0-176z m544-276l176 0 0 448-176 0 0-448z" horiz-adv-x="724" />
<glyph glyph-name="check" unicode="&#xe826;" d="M1327 554c59 60 59 155 0 215-59 59-155 59-214 0l-498-499-182 182c-59 59-155 59-214 0-60-59-60-155 0-214l318-319c43-43 113-43 156 0l634 635" horiz-adv-x="1545" />
<glyph glyph-name="right" unicode="&#xe827;" d="M400 351c0 9-3 20-11 27l-228 220c-33 30-33 81 0 111 32 33 86 33 120 3l344-331c9-8 11-19 11-27 0 0-3-21-11-30l-344-334c-33-32-87-32-120 0-33 33-33 82 0 115l228 222c8 5 11 24 11 24z" horiz-adv-x="773" />
<glyph glyph-name="sofa" unicode="&#xe828;" d="M921 351c0 1 49 232-41 232-89 0-657 0-751 0-96 0-49-232-49-232h841z m-801 191c3 3 5 4 9 4h751c2 0 3 0 4-2 17-21 17-92 6-157h-779c-12 84-2 141 9 155z m-97-123c-10 0-18-8-18-18v-266c0-10 8-18 18-18s19 8 18 18v266c0 10-8 18-18 18z m58-200h841v107h-841v-107z m36 70h769v-35h-769v35z m860 130c-10 0-18-8-18-18v-266c0-10 8-18 18-18s18 8 18 18v266c0 10-8 18-18 18z m-60-226h-822c-10 0-18-8-18-18s8-18 18-18h821c10 0 18 8 18 18s-7 18-17 18z" horiz-adv-x="1000" />
<glyph glyph-name="sprinkler" unicode="&#xe829;" d="M145 217c-36 0-67 14-90 37-26 24-37 57-37 92 0 35 13 69 39 92 37 37 78 47 117 55 41 9 84 19 133 58 4 4 11 6 17 6 14 0 24-6 30-17 5-12 3-24-4-34-39-49-47-91-57-131-10-41-18-82-55-119-23-25-56-39-93-39z m115 242c-28-11-53-15-74-21-36-8-65-14-90-39-14-14-22-33-22-53 0-21 6-39 22-53 11-13 31-21 51-21 19 0 39 8 52 23 28 26 33 53 41 90 4 24 8 47 20 74z m596-242c-36 0-71 14-94 39-37 37-45 78-55 119-10 41-17 82-57 131-7 10-9 22-3 34 7 17 33 23 46 11 51-39 92-49 133-58 39-8 80-18 117-55 26-23 39-57 39-92 0-35-11-68-37-92-23-23-56-37-89-37z m-116 242c12-27 16-52 22-74 8-35 13-64 39-90 14-13 33-21 55-21 19 0 37 6 50 21 14 12 22 32 22 51 0 20-8 39-24 53-25 27-52 33-89 41-22 4-47 10-75 19z m-236-504c-82 0-150 69-150 153 0 62 25 103 52 144 28 43 55 88 65 164 2 16 15 28 31 28 16 0 29-12 31-28 10-76 37-121 65-164 27-41 52-82 52-144 2-84-64-153-146-153z m0 360c-16-39-33-67-51-92-23-39-43-70-43-115 0-53 43-96 94-96 49 0 92 43 92 96 0 47-20 76-43 115-18 25-35 53-49 92z m88 312l-188 0c-15 0-27 14-27 28 0 15 12 29 27 29l188 0c15 0 27-14 27-29 0-14-12-28-27-28z m-94 38c-16 0-27 11-27 27l0 150c0 14 11 28 27 28 16 0 27-14 27-28l0-150c0-16-11-27-27-27z" horiz-adv-x="1000" />
<glyph glyph-name="a-7_corsair" unicode="&#xe82a;" d="M1167 582c-5 8-15 9-25 10 0 0-1 0-1 0-7 0-17 0-25-4-1 0-1 0-2-1-10-6-17-12-18-13l-178-147h-149c18 77 93 392 94 396 1 5 0 9-3 13-3 4-10 12-68 12-43 0-58-9-61-11-1-1-2-2-2-2l-179-192c-3-4-4-10-2-14 1-4 4-6 8-8l-48-56 0 0-116-138-130-2c-4 2-9 3-16 3-6-1-37-4-62-6-23-3-86-7-93-7-5 0-17-1-24-8-3-3-5-7-5-12-23-5-62-18-62-44 0-23 30-34 40-38 8-3 17-6 23-7 2-9 11-15 23-16 5 0 80-6 146-10 57-2 135-2 158-2l164-196c-3-1-7-3-8-7-2-5-1-10 2-14l176-195c1-1 1-1 2-2 3-2 18-11 61-11 1 0 2 0 3 0 27 0 61 2 71 13 3 3 4 7 4 11 0 1-1 4-96 402h147l179-146c0 0 8-7 21-15 9-5 20-4 29-4 0 0 0 0 0 0 12 0 18 5 20 10 4 6 3 13 0 18l-53 152 5 1c0 0 1 0 1 0 6 2 16 9 16 24v66c0 14-9 22-17 25-1 0-1 0-2 0l-3 1c16 46 56 156 56 158 2 4 1 9-1 13z m-86-177c-1-4-1-8 1-11 2-4 6-6 10-7l16-2v-65l-16-3c-4-1-7-3-9-6-2-4-2-8-1-11l56-160c-3 0-7 0-8 1-11 6-18 12-18 12l-183 149c-2 2-5 3-8 3h-169c-4 0-8-2-10-5s-4-7-3-11c31-126 86-356 97-406-8-2-23-4-46-4-31 0-44 4-47 6l-156 173c3 1 6 3 7 6 2 5 2 10-2 14l-185 222c-3 3-7 5-11 5 0 0 0 0 0 0-1 0-96-2-163 2-62 3-134 9-144 9 0 7-5 12-11 13-24 5-49 16-51 22 2 7 29 17 50 21 7 1 11 6 11 13v3c1 0 2 0 3 0 1 0 1 0 1 0 3 0 70 5 95 7 25 3 56 6 62 7 0-1 1-1 1-1 3-2 5-3 9-3l136 3c1 0 2 0 3 0 4 0 8 1 10 4l121 143 0 0 65 77c3 4 4 10 1 14-1 3-3 5-6 7l158 169c3 2 16 6 45 7 24 0 36-2 43-3-15-61-95-399-96-402-1-4 0-9 3-12s6-5 10-5h171c3 0 6 1 8 3l182 151c0 0 0 0 0 0 0 0 6 5 14 10 3 1 8 2 12 2-11-31-41-114-58-161z" horiz-adv-x="1168" />
<glyph glyph-name="leftdoor" unicode="&#xe82b;" d="M682 860l0-897-364 0 0 897 364 0m50 53l-464 0 0-1001 464 0z m-332-528c22 0 38 16 38 35 0 22-16 37-38 37-21 0-39-17-39-37 0-19 18-35 39-35z" horiz-adv-x="1000" />
<glyph glyph-name="crescent-table" unicode="&#xe82c;" d="M328 729l0 76c0 45 39 67 78 67 37 0 78-22 78-67l0-74c12-4 24-6 36-10l0 84c0 67-57 102-114 102-56 0-113-35-113-102l0-86c12 4 23 8 35 10z m270-49l50 45c14 12 28 18 43 18 34 0 67-26 81-59 5-16 11-45-16-70l-57-51c6-10 12-22 16-33l64 58c32 30 41 69 26 110-20 47-67 82-114 82-23 0-46-10-64-26l-61-54c12-6 22-14 32-20z m-114-584l0-76c0-45-39-67-78-67-37 0-78 22-78 67l0 76c-12 4-23 8-33 12l0-88c0-67 57-102 111-102 57 0 114 35 114 102l0 86c-12-4-24-8-36-10z m211 158l59-52c29-24 23-55 18-71-14-33-47-60-81-60-13 0-29 6-41 17l-58 53c-12-8-22-14-33-19l68-61c20-16 41-25 64-25 47 0 94 35 114 82 13 41 4 82-28 109l-66 59c-6-10-10-20-16-32z m120 266l-96 0c4-10 6-22 10-35l86 0c46 0 66-37 66-76 0-20-6-41-18-55-11-14-27-22-48-22l-88 0c-4-13-8-25-12-35l100 0c31 0 56 12 76 35 15 20 25 47 25 77 2 54-33 111-101 111z m-88-188c5 26 9 53 9 83 0 23-4 48-7 70-4 13-6 25-10 35-2 4-2 8-4 10-4 11-10 23-16 33-23 47-58 86-101 117-10 6-22 12-32 18-15 9-31 17-48 21-10 4-24 8-36 10-23 6-48 10-74 10-27 0-54-4-82-10-11-4-23-8-33-12-123-47-211-166-211-304 0-139 88-258 211-305 10-4 22-8 33-12 28-6 55-10 82-10 26 0 51 4 74 10 12 2 26 6 36 10 13 4 27 10 39 17 11 6 21 12 33 18 43 29 78 68 103 113 6 12 12 22 18 34 0 3 2 7 4 9 4 12 8 24 12 35z m-317-210c-162 0-293 130-293 293 0 160 131 291 293 291 160 0 291-131 291-291 0-163-131-293-291-293z" horiz-adv-x="1000" />
<glyph glyph-name="banana-palm" unicode="&#xe82d;" d="M600-82l-325 0c-48 0-87 24-87 57l0 268 500 0 0-268c0-33-38-57-88-57z m-366 278l0-221c2-2 18-10 41-10l325 0c23 0 39 8 41 12l0 219z m461 164l0-45-515 0 0 45 515 0m47 47l-609 0 0-139 609 0z m-293 29c-4 0-9 2-13 4-10 8-14 23-6 33l72 111c8 12 21 14 31 8 12-8 16-23 8-33l-72-111c-4-8-14-12-20-12z m-154 350c55 0 96-28 129-84 2-2 2-4 4-6-43 13-98 21-162 21-63 0-110-15-147-37 24 53 67 86 133 100 14 4 27 6 43 6m0 46c-18 0-35-1-55-5-220-49-185-280-185-280 0 0 56 125 211 125 154 0 242-58 242-58 0 0-39 218-213 218z m484-158c24 0 47-8 71-25 29-22 45-47 48-78 2-22 0-47-5-71-14 30-36 61-67 92-31 33-72 55-115 63 21 10 45 19 68 19m0 45c-119 0-213-137-213-137 0 0 47 28 106 28 39 0 82-12 123-53 102-101 72-211 72-211 0 0 170 221 10 338-33 27-66 35-98 35z m-62 188l0-47c39 0 72-18 99-43-15 2-33 4-50 4-30 0-61-4-88-14-43-16-76-35-102-55 2 12 6 24 12 36 12 29 37 50 74 64 20 6 37 10 55 10l0 45m0 0c-24 0-45-4-70-12-180-66-100-268-100-268 0 0 12 86 146 135 26 10 49 14 73 14 103 0 181-74 181-74 0 0-76 205-230 205z" horiz-adv-x="1000" />
<glyph glyph-name="bar" unicode="&#xe82e;" d="M945 536l0-469-888 0 0 469 888 0m51 52l-992 0 0-574 992 0z m-797 61l-164 162 326 0z m-39 109l37-37 39 37z m16-60l51 0 0-155-51 0z" horiz-adv-x="1000" />
<glyph glyph-name="dance" unicode="&#xe82f;" d="M500 198c-127 0-228 103-228 228 0 127 101 229 228 229 127 0 229-102 229-229 0-125-102-228-229-228z m0 414c-103 0-185-84-185-186 0-103 83-185 185-185 104 0 186 84 186 185 0 104-82 186-186 186z m8 21c-12 0-22 10-22 22l0 179c0 10 8 20 22 20 10 0 19-8 19-20l0-179c0-12-9-22-19-22z m0-662c-12 0-22 8-22 20l0 125c0 11 8 21 22 21 10 0 19-10 19-21l0-125c0-10-9-20-19-20z m-360 111c-5 0-11 2-15 6-8 8-8 20 0 28l109 111c10 8 22 8 30 0 7-8 7-21 0-29l-110-110c-4-4-10-6-14-6z m717 0c-4 0-9 2-13 6l-112 110c-8 8-8 21 0 29 8 8 22 8 30 0l111-111c8-8 8-20 0-28-4-4-10-6-16-6z m-675 317l-167 0c-11 0-21 8-21 21 0 10 10 20 21 20l167 0c9 0 21-8 21-20 0-13-10-21-21-21z m787 0l-166 0c-12 0-22 8-22 21 0 10 10 20 22 20l166 0c9 0 19-8 19-20 0-13-8-21-19-21z" horiz-adv-x="1000" />
<glyph glyph-name="duplicate" unicode="&#xe830;" d="M625 600l0 250-438 0-187-188 0-562 375 0 0-250 625 0 0 750-375 0 0 0z m-437 162l0-99-99 0 99 99 0 0z m-126-600l0 438 188 0 0 187 312 0 0-187-187-188 0-250-313 0 0 0z m500 350l0-99-99 0 99 99 0 0z m375-600l-500 0 0 438 187 0 0 188 312 0 1-626 0 0z" horiz-adv-x="1000" />
<glyph glyph-name="square-table" unicode="&#xe831;" d="M289 803c0 41 37 61 72 61 36 0 73-20 73-61l0-80 31 0 0 80c0 61-53 94-106 94-50 0-103-33-103-94l0-80 31 0 0 80z m281 0c0 41 37 61 73 61 35 0 72-20 72-61l0-80 31 0 0 80c0 61-53 94-105 94-51 0-106-33-106-94l0-80 33 0 0 80z m-474-615c-41 0-61 37-61 72 0 18 6 37 16 51 12 14 25 21 45 21l90 0 0 32-90 0c-30 0-53-12-71-33-15-20-23-45-23-73 0-51 31-105 94-105l90 0 0 33-90 0z m0 281c-41 0-61 37-61 72 0 18 6 38 16 51 12 14 25 20 45 20l90 0 0 33-90 0c-30 0-53-12-71-35-15-18-23-43-23-70 0-53 31-106 94-106l90 0 0 33-90 0z m808 141c41 0 61-39 61-72 0-20-6-38-16-51-11-14-25-22-45-22l-89 0 0-31 89 0c30 0 53 12 71 33 15 20 23 45 23 73 0 50-31 103-94 103l-89 0 0-31 89 0z m0-250l-89 0 0-31 89 0c41 0 61-38 61-73 0-19-6-37-16-50-11-14-25-22-45-22l-89 0 0-31 89 0c30 0 53 12 71 33 15 20 23 45 23 72 0 49-33 102-94 102z m-470-338c0-41-37-61-73-61-35 0-72 20-72 61l0 74-31 0 0-74c0-61 53-94 105-94 51 0 106 33 106 94l0 74-33 0 0-74z m281 0c0-41-37-61-72-61-36 0-73 20-73 61l0 74-31 0 0-74c0-61 53-94 106-94 50 0 103 33 103 94l0 74-31 0 0-74z m100 307l0 394-627 0 0-627 625 0 0 233z m-34-202l-562 0 0 563 562 0z" horiz-adv-x="1000" />
<glyph glyph-name="rotate-right" unicode="&#xe832;" d="M714 279c0-158-128-286-285-286-158 0-286 128-286 286 0 157 128 285 286 285l142 0 1-143 215 215-215 214 0-143-143 0c-237 0-429-192-429-428 0-237 192-429 429-429 236 0 428 192 428 429l-143 0 0 0" horiz-adv-x="857" />
<glyph glyph-name="selection-mode" unicode="&#xe833;" d="M174 850c-96 0-174-78-174-174l0-652c0-96 78-174 174-174l652 0c96 0 174 78 174 174l0 652c0 96-78 174-174 174l-652 0 0 0z" horiz-adv-x="1000" />
<glyph glyph-name="stand" unicode="&#xe834;" d="M232 745v-247-32-215-33-246h309v246 33 215 32 247h-309z m271-737h-234v207h234v-207z m0 453v-206h-234v206h234z m-234 247h234v-206h-234v206z" horiz-adv-x="773" />
<glyph glyph-name="filled-table" unicode="&#xe835;" d="M895 454h-94c0 0 0 1 0 1-1 3-2 7-4 10 0 0 0 0 0 0l62 55c32 29 40 67 25 106-19 47-64 80-109 80-23 0-46-9-64-25l-57-52c0 0-1 0-1 0-14 8-29 14-44 20v82c0 65-55 98-109 98s-110-33-110-98v-83c-1 0-2 0-3-1-15-6-30-12-43-20 0 0 0 0 0 0l-58 53c-18 17-40 25-64 25-45 0-90-33-108-80-16-39-7-77 24-106l65-59c-1-1-2-2-2-4h-97c-30 0-56-12-74-35-16-20-24-46-24-74 0-53 34-108 98-108h100c0 0 0-1 0-1 1-2 2-4 3-7 0 0 1-1 1-1l-66-58c-32-28-41-67-26-106 17-47 63-80 108-80 24 0 45 8 64 24l67 59c10-6 22-10 33-15 0-1 1-1 2-1v-84c0-65 55-98 110-98s109 33 109 98v82c13 5 25 10 37 16 0 0 1 0 1 0l65-57c18-16 41-24 64-24 45 0 90 33 109 80 15 39 5 78-27 106l-63 56c0-1-1-1-1-2 0 0 0 0 0 0 1 3 3 6 4 10l0 0h98c30 0 56 12 74 35 16 20 24 46 24 74 0 54-34 109-99 109z m-749 160c13 33 45 58 76 58 15 0 30-6 42-18l51-46c-41-29-74-68-97-113l-56 51c-27 24-21 53-16 68z m-42-342c-45 0-65 38-65 75 0 20 6 38 17 52 12 16 28 23 48 23h87c0-1 0-1 0-1-5-23-8-46-8-70 0-27 3-53 10-79l-89 0 0 0z m161-236c-12-12-27-17-41-17-31 0-64 26-76 59-6 15-11 44 16 68l59 52c24-44 58-82 100-110 0 0 0 0 1 0l-59-52z m235 760c36 0 75-21 75-65v-71c-1 0-2 0-3 0-23 6-47 9-72 9-27 0-52-3-76-10v72c0 44 39 65 76 65z m0-892c-37 0-76 21-76 65v73c25-6 50-9 77-9 25 0 49 3 72 8 1 0 1 0 2 0v-72c0-44-39-65-75-65z m234 750c12 12 27 18 42 18 31 0 64-26 76-58 6-15 11-43-16-68l-54-49c-23 45-57 83-98 112l50 45z m102-508c27-24 22-53 16-68-12-33-45-59-76-59-15 0-28 5-41 17l-57 50c42 28 76 65 101 109 0 0 0 1 1 2l56-51z m108 147c-12-16-28-23-48-23h-88c1 1 1 2 1 2 6 26 10 52 10 79 0 24-3 47-8 69h85c45 0 65-38 65-75 0-20-6-38-17-52z" horiz-adv-x="1000" />
<glyph glyph-name="service-view" unicode="&#xe836;" d="M931-108l0 921c0 18-5 29-15 34-10 5-23 3-37-6l-234-98c-14-9-26-23-37-42-10-19-15-37-15-54l0-299c0-17 3-32 8-47 6-14 13-26 22-36 8-9 16-17 24-23 8-7 15-12 22-15l8-4 0-331c0-12 4-22 12-30 9-8 19-12 30-12l170 0c12 0 22 4 30 12 8 8 12 18 12 30l0 0z m-550 958l42-83 0-334-84-169 0-372c0-12-4-22-13-30-8-8-18-12-30-12l-169 0c-12 0-22 4-30 12-8 8-12 18-12 30l0 372-85 169 0 334 42 83 43-83 0-250 84 0 0 250 43 83 42-83 0-250 85 0 0 250 42 83 0 0" horiz-adv-x="931" />
<glyph glyph-name="armchair" unicode="&#xe837;" d="M779 768c4 0 6 0 8-4 29-37 29-166 12-285l-592 0c-14 103-17 238 18 281 4 6 7 6 15 6l539 0m0 68c-160 0-367 0-539 0-174 0-88-419-88-419l700 0c2 0 88 419-73 419z m8-531l0-64-568 0 0 64 568 0m67 65l-702 0 0-194 702 0z m-813-377c-18 0-33 15-33 33l0 482c0 18 15 34 33 34 18 0 33-16 33-34l0-482c0-18-15-33-33-33z m918 0c-18 0-33 15-33 33l0 482c0 18 15 34 33 34 18 0 33-16 33-34l0-482c0-18-15-33-33-33z m-109 72l-678 0c-18 0-33 14-33 33 0 18 15 33 33 33l678 0c17 0 33-15 33-33 0-19-16-33-33-33z" horiz-adv-x="1000" />
<glyph glyph-name="dancefloor" unicode="&#xe838;" d="M947 860l0-897-896 0 0 897 896 0m53 53l-1000 0 0-1001 1000 0z m-518 0l53 0 0-985-53 0z m-482-485l1000 0 0-53-1000 0z" horiz-adv-x="1000" />
<glyph glyph-name="bar-stool" unicode="&#xe839;" d="M264-86c0 0-2 0-2 0-18 2-28 16-26 32l67 638c2 16 15 28 29 26 18-2 27-16 25-31l-64-639c-2-14-16-26-29-26z m453 0c-14 0-27 12-27 26l-67 639c-2 15 10 29 25 31 16 2 30-10 32-26l64-638c2-16-10-30-23-32-2 0-2 0-4 0z m39 940l0-121-512 0 0 121 512 0m57 57l-623 0 0-235 623 0z m-520-754l404 0 0-57-404 0z" horiz-adv-x="1000" />
<glyph glyph-name="barcart" unicode="&#xe83a;" d="M943 555l0-375-886 0 0 375 886 0m51 51l-988 0 0-477 988 0z m-133-588c-21 0-37 16-37 35 0 18 18 35 37 35 20 0 37-17 37-35 0-21-17-35-37-35z m0-18c-31 0-54 24-54 53 0 29 23 51 54 51 30 0 53-22 53-51 0-29-23-53-53-53z m0 71c-11 0-19-8-19-18 0-10 8-19 19-19 10 0 20 9 20 19 0 10-10 18-20 18z m-716-55c-22 0-38 16-38 35 0 18 18 35 38 35 21 0 37-17 37-35 0-21-16-35-37-35z m0-18c-30 0-53 24-53 53 0 30 23 51 53 51 31 0 54-21 54-51 0-29-23-53-54-53z m0 71c-10 0-20-8-20-18 0-10 10-19 20-19 11 0 19 9 19 19 0 10-8 18-19 18z m54 597l-162 161 326 0z m-39 110l39-39 39 39z m16-59l51 0 0-156-51 0z" horiz-adv-x="1000" />
<glyph glyph-name="ea-6b_prowler_folded" unicode="&#xe83b;" d="M2145 394c-7 1-45 7-64 8-8 1-20 2-32 3 17 82 64 307 64 311 2 7 0 16-5 22-10 11-24 11-37 11-16 0-36-1-37-1-33-3-75-10-90-31-10-13-152-229-190-285l-353 36-28 3-92 349c-3 11-13 20-25 20 0 0 0 0 0 0l-305-1-23 11c-13 5-28 0-35-12l-118-229-117-81h-12c-8 4-19 9-28 9-8 0-16-3-22-9h-11c-1 0-1 0-1 0-81-3-125-10-125-43v-2c-53-1-175-4-212-6-72-4-240-24-247-122 0 0-1-1-1-2l0-8c0 0 0-1 0-1 5-70 87-111 247-122 42-4 162-6 215-7v-1c0-32 39-38 127-39h10c6-5 14-8 22-8 10 0 21 4 30 8h4l120-84 118-230c5-9 14-14 23-14 4 0 8 0 12 2l23 11 307 2c12 1 22 9 25 20l91 352 28 3 352 38c39-55 191-273 198-283 16-23 58-30 91-32 3 0 15-1 28-1 18 0 31 2 39 12 6 6 8 14 7 22-1 6-39 185-65 310 11 1 23 2 31 3 2 0 54 5 64 7 15 5 23 19 22 42 0 22-8 36-23 39z m-86-382c-7 0-12 1-13 1 0 0 0 0 0 0-21 1-46 6-53 10-17 25-198 284-206 295-5 8-15 12-24 11l-368-40-46-5c-11-1-20-9-23-19l-90-350-293-3c-3 0-7-1-10-2l-6-3-109 214c-2 3-5 7-8 9l-133 93c-4 3-10 4-15 4h-18c-4 0-8-1-12-2-1-1-3-2-4-2-4 3-9 4-15 4h-25c-26 1-57 2-75 5v9c0 14-11 26-26 26-2 0-185 3-238 7-177 13-196 57-197 72l0 6c4 31 72 65 198 72 47 3 234 7 236 7 14 1 26 12 26 27v11c16 3 45 5 73 6h26c5 0 10 2 14 4 0 0 0 0 0 0 4-2 9-4 14-4h28c5 0 10 2 15 5l128 90c4 2 7 6 9 9l110 213 6-3c3-2 7-3 11-3l290 1 90-346c3-11 12-19 23-20l46-6c0 0 0 0 0 0l370-37c9-1 19 3 24 11 50 77 180 273 196 296 7 4 32 9 53 10 0 0 8 1 18 1-17-83-64-310-64-310-2-8 0-16 5-22 4-6 11-10 19-10 0 0 1 0 1 0 0 0 0 0 0 0-8 0-15-4-19-10-5-6-7-14-5-22 22-104 53-250 66-310z" horiz-adv-x="2171" />
<glyph glyph-name="dessert-table" unicode="&#xe83c;" d="M865 231l-43-174c-7-33-37-55-66-55l-498 0c-31 0-61 22-68 55l-42 170c-21 6-41 18-58 31l53-213c13-56 60-95 115-95l498 0c55 0 101 39 115 95l57 223c-20-14-39-27-63-37z m-287 482c18 16 28 39 28 65 0 53-45 95-98 95-57 0-100-42-100-95 0-26 10-47 26-65 23 6 47 10 70 10 25 0 51-4 74-10z m-123 65c0 25 24 45 51 45 27 0 51-20 51-45 0-26-24-47-51-47-27 0-51 21-51 47z m539-350c0 117-92 211-207 211-25 0-51-4-76-14-33 41-80 71-133 86-23 8-49 12-74 12-23 0-49-4-70-10-55-15-104-45-139-90-25 10-55 16-82 16-113 0-207-94-207-211 0-70 33-131 84-170 17-13 37-25 57-31 21-8 43-12 66-12 51 0 100 20 137 53 45-31 97-47 154-47 55 0 105 16 150 45 37-33 84-49 133-49 28 0 55 6 78 16 24 8 43 21 61 37 43 39 68 96 68 158z m-207-164c-43 0-84 18-113 51l-16 17-17-15c-39-31-88-47-137-47-53 0-104 18-141 49l-17 15-18-17c-29-35-70-53-115-53-88 0-158 72-158 162 0 90 70 164 158 164 25 0 53-8 76-21l20-12 13 18c39 60 108 97 182 97 72 0 139-35 178-95l11-18 22 12c21 11 47 17 72 17 86 0 158-72 158-162 0-88-70-162-158-162z" horiz-adv-x="1000" />
<glyph glyph-name="mic" unicode="&#xe83d;" d="M465-84c-14 0-25 10-25 24l0 527c0 14 11 24 25 24 12 0 23-10 23-24l0-527c0-14-11-24-23-24z m31 768l16-18-203-169-16 17 203 170m6 68l-277-232 76-90 277 231z m148-82c-68 0-123 55-123 120 0 64 55 119 123 119 69 0 123-55 123-119 0-65-54-120-123-120z m0 192c-41 0-76-31-76-72 0-40 35-73 76-73 43 0 77 33 77 73 0 41-34 72-77 72z" horiz-adv-x="1000" />
<glyph glyph-name="stairs" unicode="&#xe83e;" d="M115-84l-62 0 0 282 215 0 0 232 236 0 0 238 207 0 0 241 236 0 0-63-172 0 0-242-209 0 0-238-236 0 0-231-215 0z" horiz-adv-x="1000" />
<glyph glyph-name="triangle-up" unicode="&#xe83f;" d="M995 35l-990 0 495 630 495-630z" horiz-adv-x="1000" />
<glyph glyph-name="settings" unicode="&#xe840;" d="M313 350c0-51 18-95 55-132 37-37 81-55 132-55 52 0 96 18 133 55 37 37 55 81 55 132 0 52-18 96-55 132-37 37-81 55-133 55-51 0-95-18-132-55-37-36-55-80-55-132l0 0z m86-362c-29 7-56 19-82 34l-5 2-116-70c-35 26-65 57-91 91l69 117-2 5c-14 25-25 52-33 81l-2 5-132 33c-3 24-5 45-5 64 0 15 2 36 5 64l132 33 2 5c7 27 18 54 33 82l2 4-69 117c26 33 57 64 91 91l116-70 5 2c25 15 52 26 82 34l4 1 33 133c27 3 49 4 64 4 20 0 42-1 65-4l33-133 5-1c28-8 55-19 81-34l5-2 117 70c35-27 65-58 90-91l-69-117 2-4c14-25 25-52 34-82l1-5 133-33c2-26 4-47 4-64 0-19-2-41-4-64l-133-33-1-5c-9-29-20-56-34-81l-2-5 69-117c-28-35-58-66-90-91l-117 70-5-2c-27-15-54-27-81-34l-5-2-33-132c-27-3-49-4-65-4-19 0-41 1-64 4l-33 132-4 2 0 0" horiz-adv-x="1001" />
<glyph glyph-name="plane" unicode="&#xe841;" d="M479 294l11 0c0-1-1-4-3-5-3 0-8 5-8 5l0 0m10 113l-11 0 0 0c0 0 5 5 8 4 2 0 3-3 3-4m-60-57l0-3c0-5-3-9-8-10 0 0 0 0-1 0-1 0-2 0-3 1-1 0-2 1-2 2-2 1-3 3-3 5 0 1-1 1-1 1 0 1 0 1 0 1l0 7c0 0 0 1 0 1 1 4 3 7 6 8 1 1 2 1 3 1 2 0 3 0 4-1 1 0 2-1 2-2 2-2 3-4 3-7l0-4m-5-13c1-9 1-22 1-35-1-31-3-61-6-61-3 0-4 30-4 61 0 13 1 26 1 35l1 1c1-1 2-1 3-1 1 0 1 0 1 0l3 0m0 62c1-14 0-26 0-36l0 0c-1 1-2 1-4 1-1 0-2 0-3-1l-1 0c0 10-1 22-1 36-1 30 1 60 4 61 2 0 5-31 5-61m-13-53l0 0-12 0c-3 0-5 2-5 5 0 1 1 2 1 3 1 0 2 1 4 1l12 0c0 0 0-1 0-1l0-7c0 0 0 0 0-1m249-491c-50 0-75 42-81 64l-1 2-49 358-81 0c-12 0-30 9-30 35l0 76c0 22 16 31 28 32l1 0 80 0 43 357c6 23 29 66 82 66 57 0 82-45 88-69l75-293 0-49c6-9 16-22 25-23 17-3 110-13 145-16l20 115c2 19 16 53 55 53 40 0 54-35 56-54l7-137c2 0 3-1 5-1 14-2 28-5 28-19 0-16-15-17-27-19-2 0-5 0-6-1l-7-140c-1-19-14-55-54-55-37 0-54 34-57 52l-21 120c-36-4-132-16-146-17-6-1-16-12-22-23l-1-50-68-297c-7-23-33-67-87-67z m-52 71c2-6 15-41 52-41 43 0 57 40 58 45l68 294 0 53 2 3c3 7 22 38 46 41 18 3 161 20 161 20l14 2 25-149c1-2 6-26 28-26 22 0 24 23 24 26l7 148 2 2c0 2 2 5 5 8-3 4-5 8-6 11l-1 4-7 140c0 4-4 26-26 26-22 0-25-24-25-26l0-2-25-143-14 1c-6 1-138 15-160 18-29 3-47 39-50 43l-1 3 0 52-74 289c-1 3-12 47-58 47-40 0-52-36-53-42l-43-356 0 0-4-30-32 4-1 1-18-1-13-6-4 7-37 0c0 0 0 0 0 0 0 0 0-1 0-2l0-76c0-3 1-5 1-5l37 0 5 6 13-6 17 0 3 4 25-6 6-7 2-5 51-369z m-122 358c-4 0-8 4-11 6l7 7c1-1 2-2 3-2l10-1 0-1c-1-4-4-8-7-9-1 0-1 0-2 0z m-66 48c-2 0-4 1-6 2-1 0-2 1-3 2-2 2-4 5-4 9l-1 1 0 8 0 1c1 6 4 10 8 12 4 2 8 2 12 0 2 0 3-1 4-3 3-2 4-6 4-10l0-7c0-7-5-14-12-15l-2 0z m0 27c0 0-1 0-1 0-1-1-2-3-3-5l0-7 1-1c0-1 0-2 1-3 0 0 1 0 1-1 0 0 1 0 1 0 2 0 4 3 4 5l0 7c0 1-1 3-1 4-1 0-1 0-1 1-1 0-1 0-2 0z m61 45l-7 7c3 2 8 6 13 5 4-1 6-4 7-8l-10-2c-1-1-2-2-3-2z m-62-168c-4 0-10 0-9 66 0 13 1 26 1 36l10-1 8 1c1-10 1-23 1-36-1-66-7-66-11-66z m-8 105l-12 0c-6 0-10 4-10 10 0 2 1 4 3 6 2 2 4 3 7 3l12 0 0-19z m0 22c0 10-1 23-1 36-1 65 4 65 8 66 5 0 10-1 11-66 1-13 1-26 0-36l-10 0-8 0z" horiz-adv-x="1545" />
<glyph glyph-name="phone" unicode="&#xe842;" d="M567 273c-52-52-52-103-103-103-52 0-103 51-155 103-51 51-103 103-103 154s52 52 103 103c52 52-103 206-154 206s-155-154-155-154c0-103 105-311 206-412 101-101 309-206 412-206 0 0 155 103 155 154s-155 206-206 155l0 0z" horiz-adv-x="773" />
<glyph glyph-name="bar-graph" unicode="&#xe843;" d="M173 823l120 0c17 0 31-3 42-11 12-8 18-17 18-28l0-868c0-11-6-20-18-28-11-8-25-11-42-11l-120 0c-16 0-30 3-42 11-12 8-18 17-18 28l0 868c0 11 6 20 18 28 12 8 26 11 42 11 0 0-16 0 0 0l0 0 0 0z m720-78l120 0c17 0 31-4 42-12 12-8 18-17 18-28l0-789c0-11-6-20-18-28-11-8-25-11-42-11l-120 0c-16 0-30 3-42 11-12 8-18 17-18 28l0 789c0 11 6 20 18 28 12 8 26 12 42 12 0 0-16 0 0 0l0 0 0 0z m-360-158l120 0c17 0 31-4 42-12 12-7 18-17 18-28l0-631c0-11-6-20-18-28-11-8-25-11-42-11l-120 0c-16 0-30 3-42 11-12 8-18 17-18 28l0 631c0 11 6 21 18 28 12 8 26 12 42 12 0 0-16 0 0 0l0 0 0 0z m720-158l120 0c17 0 31-4 42-12 12-7 18-16 18-28l0-473c0-11-6-20-18-28-11-8-25-11-42-11l-120 0c-16 0-30 3-42 11-12 8-18 17-18 28l0 473c0 12 6 21 18 28 12 8 26 12 42 12l0 0z" horiz-adv-x="1545" />
<glyph glyph-name="zoom-in" unicode="&#xe844;" d="M501 224l-125 0 0 125-125 0 0 125 125 0 0 126 125 0 0-126 125 0 0-125-125 0 0-125z m-63 501c-173 0-313-140-313-313 0-173 140-313 313-313 173 0 313 140 313 313 0 173-140 313-313 313l0 0z m535-848c-37-36-97-36-133 0l-166 166c-68-43-149-70-236-70-242 0-438 197-438 439 0 242 196 438 438 438 242 0 439-196 439-438 0-87-27-168-70-236l166-166c36-36 36-96 0-133l0 0" horiz-adv-x="1000" />
<glyph glyph-name="supportstaff" unicode="&#xe845;" d="M500 850c61 0 111-19 154-64 43-43 65-94 65-155l0-146c0-24-8-55-24-92-13-35-31-53-48-53l0-74 291-185 0-106-875 0 0 106 291 185 0 74c-18 0-36 18-49 53-16 37-24 68-24 92l0 146c0 61 22 112 65 155 43 43 94 64 154 64m0 63c-76 0-144-28-199-82-55-55-82-122-82-200l0-146c0-33 8-70 27-115 14-30 27-53 45-69l0 0-264-170-29-17 0-200 1000 0 0 200-27 17-264 170 0 0c18 16 31 39 45 69 20 45 27 82 27 115l0 146c0 78-27 145-82 200-52 54-121 82-197 82z m354-897l-200 0c-15 0-31 14-31 31 0 18 16 32 31 32l200 0c15 0 31-14 31-32 0-17-14-31-31-31z" horiz-adv-x="1000" />
<glyph glyph-name="ottoman" unicode="&#xe846;" d="M867 682c39 0 55-14 61-23 27-41 13-127-2-186l-858 0c-13 53-25 137 4 180 4 8 22 29 75 29l720 0m0 53c-213 0-488 0-719 0-230 0-117-315-117-315l936 0c0 0 115 315-100 315z m-689-401l0-191-71 0 0 191 71 0m51 51l-174 0 0-295 174 0z m664-51l0-191-71 0 0 191 71 0m52 51l-173 0 0-295 173 0z" horiz-adv-x="1000" />
<glyph glyph-name="dj-band" unicode="&#xe847;" d="M469 254c-102 0-186 82-186 184 0 102 84 184 186 184 99 0 183-82 183-184 0-102-82-184-183-184z m0 330c-80 0-147-66-147-146 0-80 65-147 147-147 80 0 144 65 144 147 0 80-64 146-144 146z m0-177c17 0 31 15 31 31 0 18-14 29-31 29-20 0-33-13-33-29 2-16 15-31 33-31z m-6-420c-252 0-457 205-457 457 0 252 205 457 457 457 252 0 457-205 457-457 0-10-10-18-20-18-11 0-19 8-19 18 0 232-188 420-418 420-232 0-420-188-420-420 0-231 188-418 420-418 10 0 18-10 18-20 0-10-8-19-18-19z m195-63c-58 0-107 37-107 82 0 47 47 82 107 82 6 0 14 0 20 0l0 200 316 85 0-316c0-47-47-82-107-82-61 0-108 35-108 82 0 45 47 82 108 82 6 0 13 0 19-2l0 82-140-37 0-176c0-45-47-82-108-82z m0 127c-37 0-68-19-68-43 0-25 31-45 68-45 39 0 71 20 71 45l0 205 216 59 0-182-25 8c-10 4-22 6-31 6-39 0-71-20-71-45 0-23 32-43 71-43 37 0 68 20 68 43l0 268-240-67 0-220-26 9c-9 0-21 2-33 2z m-549 377c-11 0-19 8-19 18 0 4 4 260 254 345 10 4 19-1 23-11 2-10-2-22-11-24-225-78-229-308-229-310 2-10-8-18-18-18z m81 37c0 0 0 0-2 0-10 2-18 12-16 22 0 6 19 170 158 213 12 4 22-2 26-12 1-10-2-20-12-23-115-36-133-182-133-182-4-10-12-18-21-18z" horiz-adv-x="1000" />
<glyph glyph-name="bench" unicode="&#xe848;" d="M941 612l0-69-884 0 0 69 884 0m53 53l-988 0 0-174 988 0z m-814-262l0-188-71 0 0 188 71 0m51 53l-172 0 0-293 172 0z m660-53l0-188-71 0 0 188 71 0m50 53l-171 0 0-293 171 0z" horiz-adv-x="1000" />
<glyph glyph-name="beverage-station" unicode="&#xe849;" d="M713-88l-207 0c-63 0-113 53-113 114l0 619c0 31 23 55 54 55l330 0c30 0 53-24 53-55l0-615c-4-65-53-118-117-118z m-270 741c-3 0-5-4-5-8l0-615c0-37 29-71 68-71l207 0c37 0 70 30 70 71l0 615c0 4-4 8-6 8z m-84-117l-25 4c-94 13-160 93-160 183 0 104 86 190 189 190 94 0 174-67 190-157l4-27-190 0c-4 0-4-4-4-4z m8 330c-80 0-146-63-146-143 0-60 39-113 95-135l0 135c0 25 24 49 51 49l137 0c-23 57-78 94-137 94z m30-453l410 0 0-47-410 0z m269 46c-12 0-23 10-23 24l0 307c0 5 4 15 11 19l116 84c9 6 23 2 33-4 10-6 4-23-2-33l-108-76 0-293c-3-18-13-28-27-28z" horiz-adv-x="1000" />
<glyph glyph-name="tent" unicode="&#xe84a;" d="M504 715c33-66 94-160 189-256 127-128 219-189 260-212l0-55-906 0 0 51c47 19 148 74 277 216 96 104 149 194 180 256m-2 102c0 0-33-143-205-330-160-176-274-211-287-215l-2 0 0-119 984 0 0 119 0 0c-11 4-111 55-271 215-170 170-219 330-219 330z m-412-809c-12 0-20 10-20 20l0 127c0 11 8 19 20 19 10 0 17-9 17-19l0-127c2-10-7-20-17-20z m740 221l-650 0c-10 0-20 10-20 19 0 10 10 20 20 20l650 0c12 0 20-10 20-20 0-9-8-19-20-19z m90-221c-12 0-20 10-20 20l0 127c0 11 8 19 20 19 10 0 18-9 18-19l0-127c2-10-8-20-18-20z" horiz-adv-x="1000" />
<glyph glyph-name="zoom-out" unicode="&#xe84b;" d="M250 349l376 0 0 125-376 0 0-125z m188-250c-173 0-313 140-313 313 0 173 140 313 313 313 173 0 313-140 313-313 0-173-140-313-313-313l0 0z m535-89l-166 166c43 68 70 149 70 236 0 242-197 438-439 438-242 0-438-196-438-438 0-242 196-439 438-439 87 0 168 27 236 70l166-166c36-36 96-36 133 0 36 37 36 97 0 133l0 0" horiz-adv-x="1000" />
<glyph glyph-name="cloud" unicode="&#xe84c;" d="M3 99c0 58 17 109 53 154 35 44 81 72 136 84-2 10-3 25-3 46 0 128 45 236 135 326 90 89 198 134 325 134 92 0 175-25 251-74 75-50 131-115 168-196 36 12 74 18 112 18 100 0 186-36 257-108 70-73 106-159 106-259 0-101-36-188-106-260-71-71-157-107-257-107l-937 0c-66 0-123 24-170 71-47 48-70 105-70 171z" horiz-adv-x="1545" />
<glyph glyph-name="monitor" unicode="&#xe84d;" d="M442 78l0-6c0-12 2-23 5-33l-126 0c3 10 7 21 7 33l0 6 114 0m50 48l-216 0c2-4 2-9 2-14l0-42c0-28-23-48-50-48-11 0-19-7-19-17s6-16 16-16l315 0c10 0 16 7 16 16s-6 17-16 17c-29 0-51 22-51 48l0 42c1 5 1 9 3 14l0 0z m232 536l0-447-676 0 0 447 676 0m13 49l-701 0c-19 0-35-17-35-36l0-475c0-19 16-35 35-35l701 0c19 0 35 16 35 35l0 475c0 19-16 36-35 36l0 0z m-83-458l-539 0c-16 0-27 12-27 25l0 323c0 13 13 24 27 24l539 0c17 0 28-11 28-24l0-325c0-13-13-23-28-23z" horiz-adv-x="773" />
<glyph glyph-name="ea-6b_prowler_fullwings" unicode="&#xe84e;" d="M1099 373c-4 0-23 3-33 4-4 0-10 1-16 1 9 42 32 157 33 159 0 4-1 9-3 12-5 5-12 5-19 5-8 0-18 0-19 0-17-1-38-5-46-16-5-7-78-117-97-146l-219 22c-2 1-5 2-7 3-1 7-2 8-3 14-2 12-14 18-25 19l-8 2c11 74 57 364 58 374 1 3 1 11-4 18-4 3-8 5-13 5 0 0-1 0-2 0l-32-2c-4 0-33-1-56-15-10-6-19-16-27-31 0 0 0 0 0 0-12-24-102-199-103-201l-60-117-60-42h-6c-4 3-10 5-14 5-5 0-9-2-12-5h-5c-1 0-1 0-1 0-41-1-64-5-64-22v-1c-27 0-89-2-108-3-37-2-123-12-127-62 0 0 0-1 0-1l0-4c0 0 0-1 0-1 2-36 45-57 126-62 22-2 83-3 110-4v0c0-17 20-20 65-20h5c3-3 7-5 12-5 5 0 10 3 15 5h2l62-43 60-118c3-6 80-158 101-196 6-11 14-25 27-33 26-18 58-19 59-19l29-2c0 0 1 0 2 0 6 0 11 3 15 7 3 3 6 8 5 16-1 9-48 305-59 378l16 4c3 0 5 2 7 3l10 11c2 2 3 5 3 7l2 8 10 5 213 23c20-28 98-140 102-145 8-11 29-15 46-16 2 0 8-1 14-1 0 0 0 0 0 0 10 0 16 1 21 6 2 3 4 7 3 12 0 3-20 94-34 158 6 1 13 1 17 2 1 0 27 2 32 3 8 3 12 10 12 22-1 11-5 18-12 20z m-44-196c-4 0-7 1-7 1 0 0 0 0 0 0-11 0-23 3-27 5-9 13-101 145-105 151-3 4-8 6-13 6l-224-24c-2-1-3-1-5-2l-18-10c-3-2-6-5-7-9l-1-10-5-5-25-5c-6-2-11-9-10-16 16-96 54-337 61-381l-23 1c0 0-26 1-45 14-7 4-12 13-18 24-21 38-101 194-101 195l-62 121c-1 2-3 3-4 5l-68 47c-2 2-5 3-8 3h-9c-2 0-4-1-6-2-1 0-2-1-2-1-2 2-5 3-8 3h-13c-13 0-29 1-38 2v5c0 7-6 13-13 13-1 0-95 1-122 3-91 7-100 30-101 37l0 3c2 16 37 34 101 37 24 2 120 4 121 4 7 0 13 6 13 13v6c8 2 23 3 38 3h13c3 0 5 1 7 2 0 0 0 0 0 0 2-1 5-2 7-2h14c3 0 6 1 8 3l66 46c2 1 3 3 4 5l62 120c1 1 91 176 103 201 5 10 11 17 17 20 18 11 42 11 43 11 0 0 0 0 0 0l23 2c-7-44-45-284-60-380-1-3 0-7 2-10 2-3 6-5 9-5l23-3c0 0 1 0 1-1 0 0 1 0 1 0 1-5 2-6 3-14 4-16 25-21 29-21 0 0 1 0 1 0l227-24c5 0 10 2 13 6 26 39 92 140 100 152 4 2 16 4 27 5 0 0 4 0 9 0-9-42-33-159-33-159 0-3 1-7 3-10 2-4 6-5 10-6 0 0 0 0 0 0 0 0 0 0 0 0-4 0-7-2-10-5-2-3-3-7-2-11 11-53 27-128 34-159z" horiz-adv-x="1112" />
<glyph glyph-name="multiple-people" unicode="&#xe84f;" d="M516 177l0 35c47 25 86 92 86 158 0 108 0 194-129 194s-129-86-129-194c0-66 39-133 86-158l0-35c-146-13-257-84-257-169l601 0c0 86-112 158-258 169l0 0z m-296-17c36 24 84 43 133 54-11 13-19 26-28 38-21 37-32 78-32 119 0 57 0 111 21 156 20 43 56 71 108 80-11 51-41 85-123 85-128 0-128-85-128-193 0-66 38-133 85-159l0-34c-145-13-257-84-257-169l187 0c13 8 23 17 34 23l0 0z" horiz-adv-x="773" />
<glyph glyph-name="templates" unicode="&#xe850;" d="M1001 77l0-182c0-12-4-23-13-32-9-9-19-13-32-13l-182 0c-13 0-24 4-32 13-9 9-14 20-14 32l0 182c0 13 5 24 14 33 8 8 19 13 32 13l182 0c13 0 23-5 32-13 9-9 13-20 13-33l0 0z m0 364l0-182c0-13-4-23-13-32-9-9-19-13-32-13l-182 0c-13 0-24 4-32 13-9 9-14 19-14 32l0 182c0 13 5 23 14 32 8 9 19 13 32 13l182 0c13 0 23-4 32-13 9-9 13-19 13-32 0 0 0 13 0 0l0 0z m0 364l0-182c0-13-4-24-13-32-9-9-19-14-32-14l-182 0c-13 0-24 5-32 14-9 8-14 19-14 32l0 182c0 12 5 23 14 32 8 9 19 13 32 13l182 0c13 0 23-4 32-13 9-9 13-20 13-32 0 0 0 12 0 0l0 0z m-364-728l0-182c0-12-4-23-13-32-9-9-19-13-32-13l-182 0c-13 0-24 4-33 13-8 9-13 20-13 32l0 182c0 13 5 24 13 33 9 8 20 13 33 13l182 0c13 0 23-5 32-13 9-9 13-20 13-33 0 0 0 13 0 0l0 0z m0 364l0-182c0-13-4-23-13-32-9-9-19-13-32-13l-182 0c-13 0-24 4-33 13-8 9-13 19-13 32l0 182c0 13 5 23 13 32 9 9 20 13 33 13l182 0c13 0 23-4 32-13 9-9 13-19 13-32 0 0 0 13 0 0l0 0z m0 364l0-182c0-13-4-24-13-32-9-9-19-14-32-14l-182 0c-13 0-24 5-33 14-8 8-13 19-13 32l0 182c0 12 5 23 13 32 9 9 20 13 33 13l182 0c13 0 23-4 32-13 9-9 13-20 13-32 0 0 0 12 0 0l0 0z m-364-728l0-182c0-12-4-23-13-32-9-9-20-13-32-13l-182 0c-13 0-24 4-33 13-9 9-13 20-13 32l0 182c0 13 4 24 13 33 9 8 20 13 33 13l182 0c12 0 23-5 32-13 9-9 13-20 13-33 0 0 0 13 0 0l0 0z m0 364l0-182c0-13-4-23-13-32-9-9-20-13-32-13l-182 0c-13 0-24 4-33 13-9 9-13 19-13 32l0 182c0 13 4 23 13 32 9 9 20 13 33 13l182 0c12 0 23-4 32-13 9-9 13-19 13-32 0 0 0 13 0 0l0 0z m0 364l0-182c0-13-4-24-13-32-9-9-20-14-32-14l-182 0c-13 0-24 5-33 14-9 8-13 19-13 32l0 182c0 12 4 23 13 32 9 9 20 13 33 13l182 0c12 0 23-4 32-13 9-9 13-20 13-32 0 0 0 12 0 0l0 0" horiz-adv-x="1001" />
<glyph glyph-name="close" unicode="&#xe851;" d="M1000 749l-101 101-399-399-399 399-101-101 399-399-399-399 101-101 399 399 399-399 101 101-399 399 399 399" horiz-adv-x="1000" />
<glyph glyph-name="text" unicode="&#xe852;" d="M740-86l-140 0c-18 0-30 12-30 30 0 17 12 29 30 29l41 0 0 859c0 4 0 8 2 12l-43 0c-18 0-30 12-30 29 0 18 12 30 30 30l140 0c18 0 30-12 30-30 0-17-12-29-30-29l-43 0c2-4 2-8 2-12l0-859 41 0c18 0 30-12 30-29 0-18-12-30-30-30z m-238 319l0 203c0 37-12 62-29 80-22 16-49 25-88 25-18 0-35-1-55-7-19-4-37-12-55-20l22-47c14 6 27 12 41 16 14 6 29 8 45 8 19 0 33-6 43-14 8-10 14-25 14-43l0-16-53-2c-47-1-82-11-106-27-23-16-35-39-35-70 0-29 8-53 26-69 15-15 39-23 70-23 21 0 41 2 56 10 14 6 30 19 43 37l2 0 14-41z m-180 55c-7 7-11 17-11 31 0 19 7 31 21 41 14 8 35 13 66 15l40 2 0-27c0-23-8-41-22-55-14-13-33-19-57-19-15 0-29 4-37 12z" horiz-adv-x="1000" />
<glyph glyph-name="photo-booth" unicode="&#xe853;" d="M500 120c-144 0-262 111-262 248 0 138 118 250 262 250 145 0 262-112 262-250 0-137-117-248-262-248z m0 443c-115 0-209-88-209-195 0-108 94-194 209-194 115 0 209 88 209 194 0 107-94 195-209 195z m338-14c23 0 43 20 43 43 0 24-20 43-43 43-25 0-45-19-45-43 0-23 20-43 45-43z m39-562l-754 0c-66 0-119 53-119 115l0 533c0 63 53 115 119 115l139 0 86 88 304 0 86-88 139 0c66 0 121-52 121-115l0-533c-2-62-55-115-121-115z m-754 709c-37 0-66-28-66-61l0-533c0-35 29-62 66-62l754 0c35 0 66 27 66 62l0 533c0 33-31 61-66 61l-160 0-86 90-262 0-86-90z" horiz-adv-x="1000" />
<glyph glyph-name="buffet" unicode="&#xe854;" d="M527 682c151 0 272-121 272-269 0-149-121-270-272-270-148 0-269 121-269 270 0 148 121 269 269 269m0 31c-166 0-302-134-302-300 0-166 136-301 302-301 168 0 303 135 303 301 0 166-135 300-303 300z m0-103c110 0 200-88 200-197 0-110-90-198-200-198-107 0-197 88-197 198 0 109 90 197 197 197m0 31c-127 0-228-101-228-228 0-127 101-229 228-229 127 0 231 102 231 229 0 127-104 228-231 228z m434-29l0-393c0-10-6-15-16-15-5 0-15 2-15 15 0 4 0 24 8 119 2 14-2 26-8 37-6 12-12 32-12 43-2 90 14 155 43 194m6 41c-6 0-14-2-20-8-43-41-62-117-62-225 0-19 8-45 15-58 2-6 4-14 4-20-9-111-9-121-9-123 0-31 25-47 48-47 24 0 47 16 47 47l0 408c2 16-9 26-23 26z m-877-127c8-12 19-20 35-20 2 0 8 0 14 2 0-6 0-11 0-15 0-20-10-37-18-41l-19-8 0-22c0-31 0-74 2-115 0-35 0-68 0-90 0-11-10-13-14-15-8 0-18 2-18 15 0 22 2 55 2 90 0 41 2 84 2 115l0 22-19 8c-8 4-18 21-18 41 0 4 0 9 0 15 6-2 12-2 14-2 15 0 27 8 37 20m0 111c-16 0-18-17-18-17l0-49c0-16-11-35-19-35-4 0-6 5-6 21 0 41 4 49 4 61 0 11-8 19-16 19-6 0-17-2-19-17-4-36-8-102-8-129 0-28 12-61 37-71 0-58-4-158-4-203 0-47 47-47 47-47 0 0 47 2 47 47 0 45-2 145-2 203 23 10 37 43 37 71 0 27-6 93-10 129-2 15-13 17-19 17-6 0-16-8-16-19 0-12 6-20 6-61 0-14-4-21-10-21-8 0-17 19-17 35l0 49c3 0 0 17-14 17z" horiz-adv-x="1000" />
<glyph glyph-name="drapes" unicode="&#xe855;" d="M332-86c-14 0-25 2-35 6l-72 35c-10 4-28 6-37 4l-81-21c-11-2-25 6-29 19-2 12 6 26 20 28l80 21c19 4 49 2 66-8l74-33c6-4 22-4 30 0l92 43c21 10 50 10 72 2l99-45c8-2 24-2 32 0l89 43c20 10 49 12 71 4l97-31c12-4 20-18 16-29-4-14-18-20-29-16l-98 31c-10 2-25 2-33-2l-92-43c-19-12-51-12-70-2l-102 45c-8 2-21 2-29-2l-94-43c-12-4-23-6-37-6z m-236 24c-4 0-6 2-10 2-12 6-18 19-14 33 2 4 168 408 57 822-4 14 4 26 16 30 13 4 27-4 31-16 115-432-51-838-59-856-4-9-13-15-21-15z m797 0c-8 0-18 6-22 14-8 17-181 423-60 853 4 14 17 20 31 18 12-4 19-18 15-30-117-416 57-818 59-822 6-12 0-25-12-31-4-2-7-2-11-2z m-248-12c-6 0-14 4-18 10-6 4-88 107-41 270 4 11 18 19 29 15 14-4 22-17 18-31-41-135 27-221 29-225 10-10 8-25-2-33-6-4-10-6-15-6z m-305 14c-12 0-22 8-24 19-1 6-35 145 49 274 8 12 24 15 33 8 12-8 14-22 8-34-74-111-43-234-43-236 4-12-4-25-15-29-4-2-6-2-8-2z m627 924l-932 0c-13 0-23 11-23 23 0 14 10 24 23 24l932 0c12 0 23-10 23-24 0-12-11-23-23-23z m-578-125c-14 0-26 11-26 25l0 47c0 12 12 23 26 23 11 0 23-11 23-23l0-47c0-14-12-25-23-25z m-114 0c-13 0-23 11-23 25l0 47c0 12 10 23 23 23 12 0 24-11 24-23l0-47c0-14-10-25-24-25z m225 0c-14 0-23 11-23 25l0 47c0 12 9 23 23 23 14 0 23-11 23-23l0-47c0-14-9-25-23-25z m111 0c-11 0-23 11-23 25l0 47c0 12 12 23 23 23 14 0 26-11 26-23l0-47c0-14-10-25-26-25z m114 0c-12 0-24 11-24 25l0 47c0 12 12 23 24 23 13 0 23-11 23-23l0-47c0-14-10-25-23-25z" horiz-adv-x="1000" />
<glyph glyph-name="cactus" unicode="&#xe856;" d="M652-88l-304 0c-47 0-84 24-84 55l0 252 470 0 0-252c2-31-35-55-82-55z m-343 262l0-207c2-2 15-10 39-10l304 0c26 0 38 8 39 12l0 205z m433 157l0-45-484 0 0 45 484 0m45 42l-574 0 0-130 574 0z m-277 495c19-6 23-18 23-32 0-46 0-93 0-140l0-10 39 0c0 4 0 6 0 10 0 15 0 31 0 47 2 17 14 25 32 27 2 0 2 0 3 0 14 0 26-6 34-16l0-101c-8-12-22-18-39-18 0 0 0 0-2 0-4 0-6 0-10 0-8 0-14 0-20 0l-37 0 0-12c0-60 0-181 0-181l-66 0c0 0 0 94 0 142l0 8c-2 2-4 2-4 2-22 0-39 0-61 0-25 0-33 4-43 22l0 93c0 0 8 24 36 24 15 0 19-6 27-16 4-6 6-11 6-19 0-18 0-37 0-55l37 0 0 12c0 60 0 121 0 181 0 16 8 26 25 32l20 0m6 45l-30 0-4-2c-39-10-60-36-60-73 0-21 0-43 0-64-8 2-16 4-27 4-47 0-73-35-79-55l-1-8 0-111 5-10c20-37 47-45 82-45 6 0 12 0 20 0 0-47 0-107 0-107l0-45 156 0 0 193 12 0c2 0 6 0 10 0l2 0c46 0 68 26 76 41l6 10 0 127-8 12c-18 23-41 35-69 35-1 0-3 0-5 0-8 0-16-2-24-4 0 8 0 16 0 25 0 37-19 65-56 75z" horiz-adv-x="1000" />
<glyph glyph-name="easel" unicode="&#xe857;" d="M496 51l-8-8 0-111c0-10 8-20 20-20 10 0 17 8 17 20l0 111-7 8z m22 0l7-8 125-125c4-4 8-4 12-4 6 0 12 2 14 6 8 6 8 18 0 26l-108 107-50 0z m-77 0l-105-107c-8-6-8-18 0-26 4-4 8-8 12-8 6 0 9 4 13 6l125 125 8 8-53 0z m362 717l-194 0c4-2 8-4 12-6 20-6 35-17 49-33l94 0 0-641-530 0 0 641 90 0c14 16 30 27 49 33 6 0 10 2 12 6l-188 0 0-717 606 0z m-477-37c-13-16-21-37-21-61 0-23 19-41 43-41l300 0c24 0 43 18 43 43 0 22-7 41-21 59-12 14-29 27-49 31-4 2-8 4-12 6-7 6-13 16-13 29l0 20c0 53-43 98-98 98l-2 0c-53 0-96-45-96-98l0-20c0-11-3-21-13-27-4-4-8-6-12-6-21-6-37-19-49-33z m112 64l0 22c0 31 27 58 58 58l2 0c31 0 59-25 59-58l0-22c0-33 21-60 54-70 24-6 41-29 41-55 0-2-2-4-4-4l-302 0c-2 0-4 2-4 6 0 24 17 47 41 53 33 10 55 37 55 70z m232-619l-340 0c-10 0-19-8-19-19 0-10 7-18 19-18l340 0c10 0 20 8 20 18 0 11-8 19-20 19z" horiz-adv-x="1000" />
<glyph glyph-name="piano" unicode="&#xe858;" d="M393 875c189 0 250-31 259-37l6-4 6-3c12-8 24-30 24-45l0-418 203 0c7 0 13-6 13-12l0-406-808 0 0 834c0 15 11 37 23 47l4 1 6 4c12 8 70 39 264 39m0 40c-250 0-291-53-291-53-26-14-45-49-45-78l0-874 886 0 0 446c0 29-23 51-52 51l-164 0 0 377c0 29-20 66-45 80 2 0-39 51-289 51z m439-784l0-111-664 0 0 111 664 0m39 41l-742 0 0-189 742 0z m-652-129c-12 0-22 8-22 20l0 82c0 12 10 21 22 21 10 0 19-9 19-21l0-82c0-12-9-20-19-20z m420 0c-12 0-22 8-22 20l0 82c0 12 10 21 22 21 9 0 19-9 19-21l0-82c-2-12-10-20-19-20z m-350 0c-10 0-19 8-19 20l0 82c0 12 9 21 19 21 12 0 22-9 22-21l0-82c0-12-10-20-22-20z m422 0c-12 0-21 8-21 20l0 82c0 12 9 21 21 21 10 0 20-9 20-21l0-82c-2-12-10-20-20-20z m-240 0c-12 0-22 8-22 20l0 82c0 12 10 21 22 21 10 0 19-9 19-21l0-82c0-12-9-20-19-20z m-110 0c-9 0-19 8-19 20l0 82c0 12 10 21 19 21 12 0 22-9 22-21l0-82c0-12-10-20-22-20z m420 0c-9 0-19 8-19 20l0 82c0 12 10 21 19 21 12 0 22-9 22-21l0-82c-2-12-10-20-22-20z m-238 0c-12 0-21 8-21 20l0 82c0 12 9 21 21 21 10 0 20-9 20-21l0-82c0-12-10-20-20-20z" horiz-adv-x="1000" />
<glyph glyph-name="theatre" unicode="&#xe859;" d="M301 604l0-160-195 0 0 160 195 0m35 33l-266 0 0-228 266 0z m-35-287l0-33-195 0 0 33 195 0m35 35l-266 0 0-101 266 0z m-311-197c-9 0-17 8-17 18l0 251c0 8 8 16 17 16 8 0 18-8 18-16l0-251c0-10-10-18-18-18z m950 0c-8 0-18 8-18 18l0 251c0 8 10 16 18 16 9 0 17-8 17-16l0-251c0-10-8-18-17-18z m-377 416l0-160-196 0 0 160 196 0m35 33l-266 0 0-228 266 0z m-35-287l0-33-196 0 0 33 196 0m35 35l-266 0 0-101 266 0z m262 219l0-160-196 0 0 160 196 0m33 33l-264 0 0-228 264 0z m-33-287l0-33-196 0 0 33 196 0m33 35l-264 0 0-101 264 0z" horiz-adv-x="1000" />
<glyph glyph-name="triangle-down" unicode="&#xe85a;" d="M5 665l990 0-495-630-495 630z" horiz-adv-x="1000" />
<glyph glyph-name="closed-book" unicode="&#xe85b;" d="M1242 850l0-833-86-84 0 834-639 0-85-84 639 0 0-833-767 0 0 854 149 146 789 0" horiz-adv-x="1545" />
<glyph glyph-name="face-sunglasses" unicode="&#xe85c;" d="M386 736c-212 0-386-173-386-386s174-386 386-386 387 174 387 386-174 386-387 386l0 0z m-154-567l31 27c20-15 41-27 65-32 63-17 126-2 170 34l31-32c-53-45-133-62-210-41-34 10-63 25-87 44z m437 237c0-32-24-56-56-56l-113 0c-32 0-56 24-56 56l-113 0c0-32-24-56-56-56l-113 0c-32 0-56 24-56 56l0 84c0 15 12 29 29 29l169 0c15 0 29-12 29-29l0-29 114 0 0 29c0 15 12 29 29 29l169 0c15 0 29-12 29-29l0-84-5 0z" horiz-adv-x="773" />
<glyph glyph-name="delete" unicode="&#xe85d;" d="M620-72l78 0 0 538-78 0 0-538z m-155 0l78 0 0 538-78 0 0-538z m-155 0l78 0 0 538-78 0 0-538z m0 768l233 0 0 77-233 0 0-77z m-155-768l78 0 0 538-78 0 0-538z m-77 615l698 0 0-615c0-21-8-40-23-55-16-15-34-23-55-23l-543 0c-21 0-39 8-55 23-15 15-22 34-22 55l0 615z m542 153l214 0c5 0 9-2 13-5 4-4 6-9 6-14l0-38c0-6-2-11-5-14-4-4-9-6-14-6l-815 0c-5 0-10 2-14 6-3 3-5 8-5 14l0 38c0 5 2 10 6 14 4 3 8 5 13 5l214 0 0 77c0 21 7 39 23 54 15 16 33 23 54 23l233 0c21 0 39-7 55-23 15-15 22-33 22-54l0-77" horiz-adv-x="853" />
<glyph glyph-name="tradeshow" unicode="&#xe85e;" d="M918 864l0-104-836 0 0 104 836 0m49 49l-934 0 0-202 934 0z m-467-426c16 0 27-6 37-16 12-12 18-23 18-39l0-35c0-6-2-14-6-22-4-9-10-13-14-13l0-18 72-47 0-25-214 0 0 25 72 47 0 18c-4 0-10 4-14 13-4 8-6 16-6 22l0 35c0 16 6 27 18 39 10 10 21 16 37 16m0 49c-27 0-53-10-72-30-20-21-30-45-30-72l0-37c0-10 2-22 6-33l-37-24-23-15 0-102 312 0 0 102-23 15-37 24c4 11 6 23 6 33l0 37c0 27-10 53-30 72-19 20-45 30-72 30z m-402 179l49 0 0-486-49 0z m754 0l48 0 0-486-48 0z m66-492l0-262-836 0 0 262 836 0m49 51l-934 0 0-362 934 0z" horiz-adv-x="1000" />
<glyph glyph-name="podium" unicode="&#xe85f;" d="M756 106l-65 0 0-55 36 0 60-84-574 0 60 84 36 0 0 55-65 0-138-194 789 0z m-119 441l0-492-276 0 0 492 276 0m54 55l-384 0 0-602 384 0z m-193 20c-14 0-25 11-25 27l0 119c0 16 11 27 25 27 16 0 27-11 27-27l0-119c2-16-11-27-27-27z m2 203c25 0 47 19 47 43 0 25-22 45-47 45-25 0-47-20-47-45 0-24 22-43 47-43z" horiz-adv-x="1000" />
<glyph glyph-name="electric" unicode="&#xe860;" d="M680-74c-16 0-28 4-39 14l-412 324c-32 26-47 63-43 102 5 39 29 72 66 90l182 84-164 265c-12 18-14 41-2 61 9 21 33 33 54 33 16 0 28-4 39-12l412-326c32-23 47-61 43-100-5-39-29-74-64-91l-184-84 164-266c12-18 14-43 2-61-11-21-33-33-54-33z m-360 914c0 0-2-2-2-2l170-275c8-12 10-27 6-41-4-14-13-25-25-33l-194-90c-15-8-27-22-29-41-2-18 6-35 20-47l414-326c0 0 2 0 2 2l-172 275c-8 12-10 28-6 41 4 14 14 24 27 31l192 90c17 8 29 24 31 43 2 18-6 35-20 47l-414 326c2 0 0 0 0 0z" horiz-adv-x="1000" />
<glyph glyph-name="eka-3_skywarrior" unicode="&#xe861;" d="M1002 337c12 0 26 1 26 15 0 13-14 14-26 14-7 3-17 5-30 8-6 1-11 2-16 3l67 127c2 5 4 13-1 20-6 12-22 12-28 12-34 0-55-17-56-17 0-1 0-1-1-2l-117-122c-25 3-116 13-155 15-30 1-73 3-98 4l214 410c0 1 0 1 0 2 2 4 1 10-1 14-6 8-18 13-39 14-36 2-49-7-52-11-1-1-1-1-1-1l-214-262c-34 0-86 0-100-1-21-1-29-3-30-3-12-2-20-11-20-21v-29c0-11 7-19 19-22 0 0 1 0 1 0 1 0 16-3 29-4 5 0 19 0 35 0l-69-85h-87c0 0 0 0 0 0-3 0-64-2-113-8-44-5-110-19-125-27-8-5-13-13-13-22 0-9 5-19 13-24 11-7 88-26 122-32 38-6 113-9 116-10 0 0 0 0 1 0h85l69-86c-16 0-30 0-35 0-13-1-28-4-29-4 0 0-1 0-1 0-12-3-19-11-19-22v-28c0-11 8-20 20-22 1 0 9-2 30-3 13-1 58-1 91-1 3 0 6 0 9 0l209-258c4-6 14-16 45-16 2 0 4 0 7 1 25 0 38 5 42 14 2 6 1 11-1 15l-211 413 105 3c0 0 1 0 1 0l150 13 113-122c0-1 1-1 1-2 1-1 24-17 61-18 5 0 20-1 26 11 4 6 2 13 0 18l-66 129c5 1 10 2 16 3 13 2 24 4 31 7z m-67 12c-4 0-8-2-10-6-2-3-2-8 0-11l70-138c0 0 0 0 0 0-25 0-41 10-45 12l-116 126c-3 3-7 5-10 4l-156-14-124-3c-4 0-8-3-10-6-2-4-3-8-1-12l216-422c-3-1-9-2-16-2-22-1-29 4-30 5-1 0-1 0-1 1l-213 262c0 0 0 1-1 1l0 0c0 0 0 0 0 0 0 1-1 1-1 1-3 3-8 4-12 3-28 0-86 0-101 1-16 1-24 3-26 3v24c3 1 16 2 26 3 5 0 26 1 58 1 0 0 1 0 1 0 2 0 4 0 5 1 0 0 0 0 0 0 1 0 1 1 2 1 0 0 0 0 1 0 0 0 0 0 0 1 0 0 0 0 0 0 1 0 1 1 2 1 0 0 0 0 0 1 0 0 1 1 1 1 0 0 0 0 0 0 1 2 2 4 2 6 0 4-2 7-4 9l-89 109c-2 3-6 5-10 5h-90c-5 0-77 4-113 10-41 6-105 24-113 28-1 1-2 2-2 2 0 0 1 1 2 1 8 5 65 19 115 25 47 6 107 7 110 8h93c3 0 7 1 9 4l88 107c3 2 4 6 5 10 0 7-6 12-13 12-33 0-54 1-59 1-11 1-23 3-26 3v24c2 0 10 2 26 3 15 1 72 1 100 1 5-2 10-1 14 4l217 265c2 1 11 5 34 4 7 0 12-1 15-2l-219-418c-2-4-2-9 0-12 2-4 6-6 10-6 1 0 74-3 118-6 43-2 158-15 159-15 4 0 8 1 10 4l121 126c3 2 18 11 40 11 2 0 3 0 4 0l-71-138c-2-3-2-8 0-11s5-6 9-7c6-1 13-2 19-3-7-1-14-2-20-3z" horiz-adv-x="1028" />
<glyph glyph-name="cake" unicode="&#xe862;" d="M830 307l-15 0c0 4 1 8 1 12l0 166c0 64-50 115-115 115l-31 0 0 80c0 57-41 106-98 113-11-21-35-37-60-41l45 0c39 0 72-33 72-72l0-96c2-2 2-2 4-2 17 6 37 10 57 10 68 0 125-45 125-99 0-30-16-55-42-75l0-99c0-4 0-6 0-8l0-12c14 4 28 6 43 6 69 0 124-45 124-99 0-30-14-55-38-73l0-109c0-39-31-72-72-72l-658 0c-41 0-72 33-72 72l0 109c-24 18-37 43-37 73 0 54 54 99 123 99 15 0 31-2 43-8l0 12c0 4 0 6 0 8l0 101c-26 18-41 45-41 73 0 56 56 101 125 101 23 0 43-6 60-13l0 99c0 39 33 72 72 72l45 0c-25 2-49 18-60 41-57-9-98-56-98-113l0-80-31 0c-63 0-115-51-115-115l0-166c0-4 0-8 2-12l-16 0c-63 0-115-51-115-115l0-166c0-63 50-115 115-115l660 0c63 0 115 52 115 115l0 168c-2 64-54 115-117 115z m-330 488c4 0 6 0 8 0l-16 0c2 0 4 0 8 0z m-10-43c2 0 6 0 10 0 4 0 8 0 10 0 27 4 51 20 62 43 6 10 10 24 10 37 0 45-37 81-84 81-45 0-82-36-82-81 0-13 4-27 10-37 14-23 37-39 64-43z m10 118c22 0 39-18 39-38 0-17-14-33-31-37-2 0-4 0-8 0-4 0-6 0-8 0-17 4-31 18-31 37 0 20 18 38 39 38z m139-577c-20 10-41 14-65 14-23 0-45-4-64-14-20 10-43 14-67 14-21 0-45-4-64-14-39 18-92 18-129 0-8 2-14 6-21 8-14 4-30 6-43 6-69 0-123-45-123-100 0-27 13-52 37-70 21-19 52-31 86-31 23 0 45 6 66 16 37-20 90-20 129 0 17-10 41-16 64-16 24 0 45 6 65 16 19-10 41-16 64-16 24 0 45 6 67 16 35-18 82-20 119-4 17-8 37-12 55-12 35 0 66 12 87 31 22 18 36 43 36 70 0 55-55 100-123 100-14 0-30-2-43-6-4 0-8-2-12-4-39 14-86 14-121-4z m176-144c-16 0-34 4-47 10l-10 6-10-6c-29-14-72-12-100 6l-11 5-12-5c-29-20-76-20-105 0l-12 5-14-5c-27-20-76-20-105 0l-12 5-12-5c-29-20-78-20-105 0l-14 5-12-5c-13-10-33-16-52-16-43 0-80 25-80 57 0 31 37 56 80 56 19 0 39-4 52-14l12-7 14 7c27 18 76 18 105 0l12-7 12 7c29 18 78 18 105 0l14-7 12 7c29 18 76 18 105 0l12-7 11 7c28 16 71 18 100 4l10-5 10 5c13 6 29 10 47 10 42 0 80-27 80-56 0-30-38-57-80-57z m-305 432c-39 19-92 19-133 0 0 0-4 0-6 1-17 8-39 12-60 12-69 0-125-45-125-99 0-30 15-55 41-75 21-15 50-27 84-27 23 0 45 6 66 16 37-20 92-20 131 0 37-18 84-20 123-4 16-8 37-12 55-12 33 0 62 10 84 27 25 18 41 45 41 75 0 54-57 99-125 99-22 0-39-4-57-10-2 0-2 0-6 2-33 12-78 10-113-5z m111-40l12-5 10 5c13 6 29 10 47 10 42 0 82-25 82-56 0-32-40-57-82-57-18 0-34 4-47 10l-10 6-12-6c-29-14-72-12-99 4l-12 7-12-7c-29-18-78-18-107 0l-12 7-12-7c-13-8-33-14-52-14-45 0-83 25-83 57 0 31 38 56 83 56 19 0 39-4 52-15l12-6 12 6c29 19 78 19 107 0l12-6 12 6c27 17 70 19 99 5z" horiz-adv-x="1000" />
<glyph glyph-name="car" unicode="&#xe863;" d="M918-13l-53 0c-43 0-78 33-78 76l0 23-574 0 0-23c0-41-35-76-78-76l-53 0c-43 0-78 33-78 76l0 404 109 303c16 41 55 68 100 68l574 0c45 0 84-27 100-68l109-303 0-404c0-43-35-76-78-76z m-758 152l680 0 0-76c0-14 12-23 25-23l53 0c14 0 25 9 25 23l0 394-105 295c-8 20-27 34-51 34l-574 0c-22 0-41-14-49-34l-107-295 0-394c0-14 11-23 25-23l53 0c13 0 25 9 25 23l0 76z m588 543l43-125-584 0 43 125 498 0m39 53l-574 0-78-229 730 0z m-10-451c-23 0-43 17-43 39 0 23 20 41 43 41 26 0 43-18 43-41 0-22-19-39-43-39z m0-18c-33 0-58 25-58 57 0 33 25 58 58 58 34 0 61-25 61-58 0-32-27-57-61-57z m0 80c-13 0-23-10-23-21 0-12 10-22 23-22 16 0 26 10 26 22 0 11-10 21-26 21z m-548-62c-24 0-43 17-43 39 0 23 19 41 43 41 25 0 43-18 43-41 0-22-18-39-43-39z m0-18c-34 0-59 25-59 57 0 33 25 58 59 58 33 0 60-25 60-58 0-32-25-57-60-57z m0 80c-14 0-26-10-26-21 0-12 12-22 26-22 13 0 25 10 25 22 0 11-12 21-25 21z" horiz-adv-x="1000" />
<glyph glyph-name="fan-palm" unicode="&#xe864;" d="M660-84l-322 0c-51 0-88 26-88 59l0 264 496 0 0-264c2-33-35-59-86-59z m-363 278l0-219c2-2 16-12 41-12l322 0c26 0 39 10 41 14l0 217z m459 162l0-45-514 0 0 45 514 0m47 47l-608 0 0-139 608 0z m-516 367l96-84-16 68c4-4 6-6 10-9 2-2 4-6 6-8 14-18 35-45 31-71-4-23-25-46-60-70-22-14-39-19-57-19-49 0-88 52-104 80l80-32-41 94 75-31-20 82m-80 131l33-135-99 41 45-98-80 30 35-86c0 0 56-123 156-123 25 0 53 10 82 27 148 96 57 188 35 217-21 29-121 109-121 109l16-68z m494-123l-2-8-19-88 84 33 2 2-2-2-45-103 92 35c-12-22-61-104-129-104-20 0-41 8-65 22-29 19-64 49-70 82-4 31 19 62 35 82 4 4 6 8 8 10 4 6 12 13 21 23l-15-78 105 94 0 0m80 131l-111-98 18 78c0 0-112-90-135-123-24-31-125-133 39-240 33-20 62-29 92-29 109 0 172 136 172 136l41 96-90-33 49 109-110-45z m-316-430c-8 0-14 4-18 8l-66 74c-10 8-10 23 0 33 10 8 23 8 33-2l67-72c9-10 7-25 0-33-4-6-10-8-16-8z m45-47c-4 0-8 2-14 4-10 8-12 23-6 33l69 94c6 10 21 12 31 6 10-8 14-22 6-33l-67-94c-6-6-11-10-19-10z" horiz-adv-x="1000" />
<glyph glyph-name="projector" unicode="&#xe865;" d="M664 196c6-4 12-6 16-6 6 0 11 2 15 6 8 10 8 23 0 31l-86 84-60 0z m-357 31c-8-8-10-21 0-29 4-4 9-6 13-6 6 0 12 2 16 6l115 115-60 0z m644 365l0-238-904 0 0 238 904 0m45 43l-990 0 0-324 990 0z m-496-263c-55 0-102 44-102 101 0 55 45 100 102 100 55 0 102-45 102-100 0-57-47-101-102-101z m0 158c-31 0-57-26-57-57 0-31 26-57 57-57 31 0 57 26 57 57 0 31-26 57-57 57z m373-35c20 0 35 15 35 33 0 19-15 35-35 35-19 0-35-16-35-35 0-18 16-33 35-33z" horiz-adv-x="1000" />
<glyph glyph-name="tv" unicode="&#xe866;" d="M576 69l0-14c0-17 4-33 10-49l-180 0c8 16 12 34 12 49l0 14 158 0m61 56l-276 0c2-5 2-11 2-19l0-53c0-35-27-64-62-64-16 0-26-8-26-20 0-10 10-19 22-19l402 0c12 0 20 9 20 19 0 12-8 20-20 20-37 0-66 29-66 64l0 53c0 8 2 14 4 19z m299 696l0-588-873 0 0 588 873 0m9 54l-890 0c-26 0-45-19-45-44l0-608c0-25 19-45 45-45l890 0c28 0 47 20 47 45l0 609c0 24-19 43-47 43z m-125-166l0-365-644 0 0 365 644 0m22 55l-688 0c-19 0-35-12-35-29l0-416c0-18 18-29 35-29l688 0c19 0 35 11 35 29l0 414c0 19-16 31-35 31z" horiz-adv-x="1000" />
<glyph glyph-name="design-view" unicode="&#xe867;" d="M759 760l80 79c8 8 18 11 28 11 10 0 19-3 27-11l130-124c7-8 11-17 11-28 0-10-4-19-11-26l-84-75-181 174 0 0z m-590-571l518 501 180-174-518-501-180 174 0 0z m-76-66l188-182-281-91 93 273 0 0" horiz-adv-x="1034" />
<glyph glyph-name="promote" unicode="&#xe868;" d="M143 350l0 48c0 16 8 32 24 48 17 16 33 28 49 37l24 12 0-242c-3 2-6 3-11 6-4 2-12 6-23 13-11 7-20 14-29 21-8 7-16 16-23 27-7 10-11 20-11 30 0 0 0-10 0 0l0 0 0 0z m413 194l653 242 0-823-653 194-37 0 45-268c2-7 1-13-3-17-3-3-6-5-10-5-4-1-11-1-21-1l-7 0-81 0c-13 0-24 5-33 14-9 9-15 20-18 34-36 217-54 330-54 339l0 242 0 5c0 8 0 14 0 18 1 4 1 8 3 13 1 4 4 8 7 10 4 2 9 3 15 3l194 0 0 0 0 0 0 0z m750-581l0 823c0 13 4 25 14 34 9 9 20 14 34 14 13 0 24-5 34-14 9-9 14-21 14-34l0-823c0-13-5-24-14-34-10-10-21-15-34-15-14 0-25 5-34 15-10 10-14 21-14 34l0 0z" horiz-adv-x="1545" />
<glyph glyph-name="thumbs-up" unicode="&#xe869;" d="M562 476c-5 16 171 174 67 299-24 29-107-141-224-219-64-42-213-133-213-183l0-326c0-61 237-125 418-125 67 0 163 405 163 472 0 66-203 66-211 82l0 0z m-418-5c-32 0-144-19-144-149l0-230c0-128 112-144 144-144 32 0-48 27-48 107l0 301c0 88 80 115 48 115l0 0z" horiz-adv-x="773" />
<glyph glyph-name="electric-bolt" unicode="&#xe86a;" d="M551-117l-429 338c-50 39-41 118 17 144l200 94c12 6 15 21 9 30l-176 285c-21 32 20 65 50 44l429-338c50-38 41-118-18-144l-200-94c-11-6-14-21-8-29l176-286c18-32-21-68-50-44l0 0z" horiz-adv-x="773" />
<glyph glyph-name="simple" unicode="&#xe86b;" d="M506 794l0-177c0-13-4-23-13-32-8-9-19-13-31-13l-178 0c-12 0-23 4-31 13-9 9-13 19-13 32l0 177c0 13 4 23 13 32 8 8 19 13 31 13l178 0c12 0 23-5 31-13 9-9 13-19 13-32 0 0 0 13 0 0l0 0 0 0z m0-533l0 178c0 12-4 23-13 31-8 9-19 13-31 13l-178 0c-12 0-23-4-31-13-9-8-13-19-13-31l0-178c0-12 4-23 13-31 8-9 19-13 31-13l178 0c12 0 23 4 31 13 9 8 13 19 13 31 0 0 0-12 0 0l0 0 0 0z m0-177l0-178c0-13-4-23-13-32-8-8-19-13-31-13l-178 0c-12 0-23 5-31 13-9 9-13 19-13 32l0 178c0 12 4 22 13 31 8 9 19 13 31 13l178 0c12 0 23-4 31-13 9-8 13-19 13-31 0 0 0 12 0 0l0 0 0 0z m800 710l0-177c0-13-5-23-13-32-9-9-19-13-32-13l-621 0c-13 0-23 4-32 13-9 9-13 19-13 32l0 177c0 13 4 23 13 32 9 8 19 13 32 13l621 0c13 0 23-5 32-13 8-9 13-19 13-32 0 0 0 13 0 0l0 0 0 0z m0-355l0-178c0-12-5-23-13-31-9-9-19-13-32-13l-621 0c-13 0-23 4-32 13-9 8-13 19-13 31l0 178c0 12 4 23 13 31 9 9 19 13 32 13l621 0c13 0 23-4 32-13 8-8 13-19 13-31 0 0 0 12 0 0l0 0 0 0z m0-355l0-178c0-13-5-23-13-32-9-8-19-13-32-13l-621 0c-13 0-23 5-32 13-9 9-13 19-13 32l0 178c0 12 4 22 13 31 9 9 19 13 32 13l621 0c13 0 23-4 32-13 8-8 13-19 13-31l0 0z" horiz-adv-x="1545" />
<glyph glyph-name="book" unicode="&#xe86c;" d="M61 756c-29 13-60-9-60-42l0-586c0-17 9-31 23-37l344-147c11-5 25-5 36 0l344 147c14 6 24 22 24 37l0 586c0 31-32 53-60 42l-309-132c-11-5-25-5-36 0l-306 132z m265-727l-237 101c-14 6-23 22-23 38l0 475c0 12 12 22 23 17l241-104c13-5 19-17 19-30l0-479c0-15-12-23-23-18z m361 101l-237-101c-11-5-23 5-23 17l0 480c0 14 8 25 19 30l241 104c11 4 24-5 24-18l0-474c0-16-10-32-24-38z m-435 167l-122 57c-8 3-13 11-13 20l0 21c0 12 11 20 21 16l121-57c8-3 13-11 13-21l0-19c0-14-11-22-20-17z m260 0l121 57c8 3 13 11 13 20l0 21c0 12-11 20-21 16l-121-57c-8-3-13-11-13-21l0-19c-1-14 10-22 21-17z m-260 126l-122 57c-8 3-13 11-13 21l0 20c0 13 11 20 21 16l121-57c8-3 13-11 13-20l0-19c0-13-11-22-20-18z m260 0l121 57c8 3 13 11 13 21l0 20c0 13-11 21-21 16l-121-57c-8-3-13-11-13-20l0-19c-1-13 10-22 21-18z m-260-261l-122 56c-8 4-13 11-13 21l0 20c0 13 11 21 21 16l121-57c8-3 13-11 13-20l0-19c0-14-11-22-20-17z m260 0l121 56c8 4 13 11 13 21l0 20c0 13-11 21-21 16l-121-57c-8-3-13-11-13-20l0-19c-1-14 10-22 21-17z" horiz-adv-x="773" />
<glyph glyph-name="uplight" unicode="&#xe86d;" d="M647-82l-293 0c-47 0-84 39-84 84l0 4 54 426 350 0 57-430c0-45-38-84-84-84z m-325 84c0-17 16-31 32-31l293 0c15 0 31 14 31 31l-49 379-256 0z m178 690c-16 0-27 14-27 27l0 160c0 16 11 28 27 28 16 0 27-12 27-28l0-160c0-13-11-27-27-27z m-320-123c-6 0-14 2-20 8l-140 142c-10 10-10 26 0 37 9 10 27 10 37 0l142-142c10-10 10-26 0-37-6-6-13-8-19-8z m640 0c-7 0-13 2-19 8-10 9-10 27 0 37l142 142c10 10 28 10 38 0 9-9 9-27 0-37l-141-142c-6-6-14-8-20-8z" horiz-adv-x="1000" />
<glyph glyph-name="rect-table" unicode="&#xe86e;" d="M285 631c0 43 39 63 74 63 36 0 73-20 73-63l0-74 33 0 0 74c0 63-53 96-106 96-52 0-105-33-105-96l0-74 31 0z m285 0c0 43 39 63 75 63 35 0 72-20 72-63l0-74 33 0 0 74c0 63-53 96-105 96-53 0-108-33-108-96l0-74 33 0z m-136-437c0-43-39-63-75-63-35 0-72 20-72 63l0 68-33 0 0-68c0-63 53-96 105-96 53 0 108 33 108 96l0 68-33 0z m285 0c0-43-39-63-74-63-36 0-73 20-73 63l0 68-33 0 0-68c0-63 53-96 106-96 52 0 107 33 107 96l0 68-33 0z m183 324l-84 0 0-33 84 0c43 0 63-35 63-70 0-20-6-40-16-51-11-14-27-22-47-22l-84 0 0-33 84 0c30 0 55 12 73 35 15 18 23 43 23 71 0 52-33 103-96 103z m-804-176c-43 0-63 37-63 73 0 19 6 37 16 50 12 14 27 20 47 20l84 0 0 33-84 0c-30 0-55-12-73-33-15-20-23-45-23-70 0-53 31-106 96-106l84 0 0 33z m720 143l0 72-636 0 0-295 636 0z m-33-190l-570 0 0 229 570 0z" horiz-adv-x="1000" />
<glyph glyph-name="fern" unicode="&#xe86f;" d="M662-35l-326 0c-51 0-90 26-90 59l0 269 506 0 0-269c0-33-37-59-90-59z m-367 282l0-223c2-2 16-10 43-10l326 0c26 0 39 8 41 12l0 222-410 0z m465 166l0-47-520 0 0 47 520 0m49 46l-616 0 0-140 616 0z m-555 206c55 0 98-28 133-84 0-2 2-4 2-6-43 11-98 21-164 21-61 0-110-15-147-39 24 55 69 88 133 102 16 4 29 6 43 6m0 46c-18 0-35-2-55-5-222-51-187-284-187-284 0 0 56 127 213 127 154 0 244-58 244-58 0 0-37 220-215 220z m492-46c14 0 27-2 43-6 67-14 109-47 133-102-37 24-86 39-147 39-66 0-121-10-164-21 0 0 0 2 2 4 34 58 77 86 133 86m0 46c-178 0-215-220-215-220 0 0 88 58 244 58 155 0 211-127 211-127 0 0 36 233-187 284-20 3-37 5-53 5z m-113 100c21 0 45-6 66-14-49-7-92-27-129-58-35-30-58-59-76-86-4 12-4 25-4 37 2 31 20 60 49 86 29 25 61 35 94 35m0 49c-41 0-82-14-123-47-151-125-2-289-2-289 0 0-20 86 94 180 46 39 99 50 146 50 65 0 113-21 113-21 0 0-105 127-228 127z m-309-35c-70 0-121-86-121-86 0 0 35 23 78 23 20 0 37-4 57-14 62-37 60-82 60-82 0 0 59 96-25 145-16 10-33 14-49 14z" horiz-adv-x="1000" />
<glyph glyph-name="fire-extinguisher" unicode="&#xe870;" d="M606 577c9 0 15-8 15-16l0-580c0-8-6-16-15-16l-323 0c-10 0-15 8-15 16l0 580c0 8 5 16 15 16l323 0m0 48l-323 0c-35 0-64-29-64-64l0-580c0-35 29-63 64-63l323 0c35 0 64 28 64 63l0 580c0 35-27 64-64 64z m-399 174c33 0 63-27 63-58 0-32-30-59-63-59-33 0-62 27-62 59 0 31 29 58 62 58m0 47c-60 0-109-47-109-105 0-59 49-106 109-106 61 0 109 47 109 106 0 58-48 105-109 105z m301-68l0-65-110 0 0 65 110 0m47 49l-205 0 0-162 205 0z m301 19l0-201-211 53 0 95 211 53m46 61l-306-76 0-170 306-77z" horiz-adv-x="1000" />
<glyph glyph-name="bar-back" unicode="&#xe871;" d="M115 749v-365-42-366h560v365 42 366h-560z m523-737h-487v329h487v-329z m-316 372v68l97 96h-232l99-98v-66h-134v329h487v-329c0 0-317 0-317 0z m-19 101l-27 27h55l-28-27z" horiz-adv-x="773" />
<glyph glyph-name="arrow" unicode="&#xe872;" d="M510 823c6 0 10-2 13-6l405-373c15-16 15-47 0-61l-405-375c-3-4-9-4-13-4-12 0-22 8-22 22l0 144c0 49-35 88-78 88l-310 0c-22 0-39 20-39 43l0 227c0 23 17 43 39 43l310 0c43 0 78 39 78 88l0 142c0 12 10 22 22 22m0 60c-22 0-41-10-57-25-15-16-23-37-23-59l0-142c0-16-10-26-20-26l-310 0c-55 0-98-47-98-105l0-225c0-58 45-105 98-105l310 0c10 0 20-12 20-26l0-144c0-47 37-84 80-84 19 0 39 8 55 21l404 375c19 18 31 45 31 73 0 29-12 56-31 74l-404 375c-16 15-36 23-55 23z" horiz-adv-x="1000" />
<glyph glyph-name="down" unicode="&#xe873;" d="M404 374c8 0 19 2 27 10l219 227c29 32 81 32 110 0 33-33 33-87 3-119l-329-343c-8-8-19-11-28-11 0 0-21 2-29 11l-332 343c-33 32-33 86 0 119 32 32 81 32 114 0l221-227c3-8 24-10 24-10z" horiz-adv-x="773" />
<glyph glyph-name="f-14_tomcat_fullwings" unicode="&#xe874;" d="M737-150l-13 3c-1 1-30 8-50 15-23 9-30 21-31 23l0 1-107 289-192 75-22 3c-6 0-13 5-13 15v28c-34 1-94 2-136 4-34 1-75 6-107 12-58 11-66 22-66 32 0 18 31 27 64 33 32 7 73 12 111 14 43 2 92 2 126 2 3 0 5 0 7 0v34c0 7 5 14 17 14l18 2 193 74 102 283c2 5 8 19 37 28 18 6 45 13 46 13l13 4-23-375 19 2 19 1c18 16 133 114 152 130 10 8 19 12 29 12 11 0 18-6 19-7l0 0c1-1 16-17 21-22 7-8 4-21 3-24l-22-109-18-7 12-4v-1c6 0 14-1 16-1 8 0 11-5 11-7 2-5 0-10-5-14l-1-1-21-6v-18l-2 0 34-12v-71l-33-13 1 0v-18l21-6 1-1c5-4 7-9 5-14 0-2-3-7-11-7-2 0-8-1-16-1l0-1-12-4 17-6 26-115c1-4 1-11-4-17-3-5-17-20-19-21l0-1c-1-1-11-10-24-10 0 0 0 0 0 0-7 0-14 3-21 8-14 13-139 120-159 137l-17 1-21 3-1 0 0-2 27-379z m-76 49c1-1 6-7 19-12 12-4 26-8 36-11l-25 349-14 22 34 3 23-3 22 0 3-3c1-1 146-125 162-139 3-2 5-3 8-3 5 0 9 3 10 4 6 7 15 17 18 20 0 0 0 0 0 0l0 0-24 105-58 24 51 15 0 1 0 0v18l-44 12 75 29v44l-74 25 42 15v20l-47 16 56 23 20 100c1 2 1 5 1 6-4 5-17 18-19 21-1 0-3 2-6 2-5 0-10-3-16-8-21-18-155-132-155-132l-3-3-25-1-22-2h-34l17 26 21 343c-10-3-23-6-32-9-19-6-23-14-24-15l0-1 0 0-105-293-204-77-20-2v-24h20v-24l-10 0c0 0-15 0-37 0-33 0-83-1-125-3-77-4-139-17-154-27 17-9 87-22 152-25 62-2 162-4 163-4l10 0-1-23h-17v-20l20-2 202-80 110-297z" horiz-adv-x="976" />
<glyph glyph-name="everyday_schoolday" unicode="&#xe875;" d="M711-24l-570 0c-46 0-80 38-80 81s37 80 80 80l515 0 0 644-541 0c-60 0-108-49-108-109l0-644c0-60 48-109 108-109l650 0c0 0 3 724 0 750 0 12-26 15-37 12-15-3-17-12-17-12l0-693 0 0z m-86 46l-481 0c-17 0-29 12-29 29s12 29 29 29l481 0c17 0 28-12 28-29s-11-29-28-29z" horiz-adv-x="773" />
<glyph glyph-name="star" unicode="&#xe876;" d="M773 437l-268 39-119 241-118-241-268-39 193-188-46-266 239 126 239-126-45 266 193 188 0 0z" horiz-adv-x="773" />
<glyph glyph-name="leaf" unicode="&#xe877;" d="M762 636c-84 63-212 102-343 102-164 0-297-58-364-157-32-46-51-102-54-164-2-56 8-116 27-184 72 215 270 382 502 382 0 0-215-58-350-232 0 0-2-3-5-7-26-37-50-78-67-126-29-72-58-169-58-287l96 0c0 0-14 91 10 198 41-5 80-10 113-10 90 0 153 19 198 60 42 37 66 87 90 140 36 80 80 172 203 242 7 5 12 12 12 19 0 7-5 19-10 24l0 0z" horiz-adv-x="773" />
<glyph glyph-name="heart" unicode="&#xe878;" d="M564 685c-77 0-147-62-178-126-31 64-97 126-177 126-109 0-196-85-196-191 0-214 221-268 373-479 145 209 374 273 374 479 0 106-88 191-196 191l0 0z" horiz-adv-x="773" />
<glyph glyph-name="airport" unicode="&#xe879;" d="M549 275l0-275 101-75 0-75-176 49-173-49 0 75 98 75 0 275-399-124 0 98 399 251 0 275c0 20 8 38 22 53 15 15 33 22 53 22 21 0 38-7 53-22 15-15 22-33 22-53l0-275 402-251 0-98-402 124z" horiz-adv-x="955" />
<glyph glyph-name="chaise" unicode="&#xe87a;" d="M315 529c18 0 34-15 34-33l0-112-308 0 0 145 274 0m0 32l-306 0 0-210 372 0 0 144c0 37-29 66-66 66l0 0z m-293-420c-9 0-16 8-16 17l0 41c0 10 7 17 16 17s16-8 16-17l0-41c0-9-7-17-16-17z m735-2c-10 0-17 8-17 16l0 42c0 9 8 16 17 16 9 0 16-7 16-16l0-42c0-9-7-16-16-16z m-17 156l0-31-696 0 0 31 696 0m33 33l-762 0 0-97 762 0 0 97 0 0z" horiz-adv-x="773" />
<glyph glyph-name="search" unicode="&#xe87b;" d="M198 640c-51-54-77-119-77-194 0-76 26-141 77-195 51-54 113-81 186-81 72 0 134 27 185 81 51 53 76 118 76 195 0 76-25 141-76 195-51 53-113 80-185 80-73 0-135-27-186-81l0 0z m507-412l238-251c4-5 6-10 6-15 0-6-2-11-6-15l-86-91c-4-4-9-6-15-6-5 0-10 2-14 6l-238 251c-62-44-131-66-206-66-106 0-196 40-271 119-75 79-113 174-113 286 0 111 38 206 113 285 75 79 165 119 271 119 105 0 196-40 271-119 75-79 112-174 112-285 0-79-20-152-62-218 0 0 42 66 0 0l0 0" horiz-adv-x="949" />
<glyph glyph-name="visualize" unicode="&#xe87c;" d="M1457 350l-27-41c-4-7-11-18-21-31-10-14-27-36-51-66-24-30-49-60-77-89-27-28-60-60-100-93-40-33-80-62-121-86-40-25-86-45-137-61-50-16-101-24-150-24-50 0-100 8-151 24-50 16-96 36-137 61-40 24-81 53-120 86s-73 65-101 93c-27 29-53 59-77 89-24 30-41 52-50 66-10 13-17 24-21 31l-27 41 27 41c4 7 11 18 21 31 9 14 26 36 50 66 24 30 50 60 77 89 28 29 61 60 101 93 39 33 80 62 120 86s87 45 137 61c51 16 101 24 151 24 49 0 100-8 150-24 51-16 97-36 137-61 41-24 81-53 121-86s73-64 100-93c27-29 53-59 77-89 24-30 41-52 51-66 10-13 17-24 21-31l27-41 0 0 0 0 0 0z m-814-350c43-15 86-22 130-22s87 6 128 20c41 14 75 30 104 47 28 18 57 43 88 74 31 32 54 58 69 78 15 21 35 49 60 85 25 36 41 58 48 68 0 1-10 14-29 39-19 25-34 44-44 57-10 12-25 31-45 55-20 23-39 45-59 65-20 20-40 39-61 56 34-51 51-107 51-169 0-85-30-158-91-219-61-61-134-91-219-91-86 0-159 30-220 91-60 61-91 134-91 219 0 59 16 114 48 164-70-60-148-149-234-267 5-7 19-27 42-60 23-33 43-60 58-81 16-21 39-48 70-80 32-33 62-59 91-78 29-19 64-36 106-51 0 0-42 15 0 0l0 0 0 0z m10 518l-111-110c34-86 87-151 159-198l109 109c-25 17-51 41-78 74-26 34-45 63-59 87l-20 38 0 0z" horiz-adv-x="1545" />
<glyph glyph-name="rotate-left" unicode="&#xe87d;" d="M143 279c0-158 128-286 286-286 157 0 285 128 285 286 0 157-128 285-285 285l-143 0-1-143-215 215 215 214 0-143 144 0c236 0 428-192 428-428 0-237-192-429-428-429-237 0-429 192-429 429l143 0 0 0" horiz-adv-x="857" />
<glyph glyph-name="checked-in" unicode="&#xe87e;" d="M759-78c-76-46-164-72-259-72-276 0-500 224-500 500 0 276 224 500 500 500 276 0 500-224 500-500 0-95-26-183-72-259-21 18-48 29-78 29-66 0-120-54-120-120 0-30 11-57 29-78m-23 193l-456 0 0 54 152 98 0 37c-9 0-18 10-26 29-8 19-12 34-12 47l0 76c0 32 11 58 33 81 23 22 50 33 81 33 31 0 58-11 81-33 22-23 33-49 33-81l0-76c0-13-4-28-12-47-8-19-17-29-26-29l0-37 152-98 0-54m79 236c130 0 236-105 236-236 0-130-106-236-236-236-130 0-236 106-236 236 0 131 106 236 236 236m-40-210l-48 48-82-82 130-130 192 193-82 82-110-111 0 0z m-115 232c43 25 89 37 140 37 51 0 98-12 141-37 42-25 77-59 102-102 25-43 37-90 37-141 0-51-12-97-37-141-25-43-60-77-102-102-43-25-90-37-141-37-51 0-97 12-140 37-43 25-77 59-102 102-25 44-38 90-38 141 0 51 13 98 38 141 25 43 59 77 102 102 0 0-43-25 0 0l0 0" horiz-adv-x="1080" />
<glyph glyph-name="support-staff-view" unicode="&#xe87f;" d="M676-47l0-69 276 0 0 69-276 0z m324 16l0-119-1000 0 0 119 333 214 0 84c-20 0-39 20-57 62-17 41-26 76-26 104l0 167c0 69 24 128 73 177 49 49 108 73 177 73 69 0 128-24 177-73 49-49 73-108 73-177l0-167c0-28-9-63-26-104-18-42-37-62-57-62l0-84 333-214" horiz-adv-x="1000" />
<glyph glyph-name="circle-table-tab" unicode="&#xe880;" d="M880 468h-69l45 39c33 29 43 73 27 116-20 49-69 84-116 84-25 0-51-10-71-27l-59-53c-6 4-12 6-18 8v84c0 71-59 108-118 108s-115-38-115-108v-86c-6-2-10-4-16-8l-65 59c-20 18-45 27-71 27-49 0-98-35-116-84-16-43-6-86 27-116l45-41h-71c-33 0-63-14-82-39-18-22-25-49-25-78 0-59 37-118 108-118h73l-47-41c-33-29-45-73-27-116 18-49 67-84 116-84l0 0c25 0 49 10 69 27l71 63c2-2 4-2 8-4v-98c0-71 59-108 118-108s118 37 118 108v94c4 2 8 4 10 4l67-59c20-18 43-27 69-27 49 0 98 35 116 84 16 43 6 86-27 116l-45 39h73c33 0 63 14 82 39 18 22 25 49 25 78-1 61-38 118-109 118z m-145 170c10 8 20 12 31 12 24 0 51-20 61-47 8-20 4-37-12-51l-49-45c-20 33-47 65-76 88l45 43z m-294 83c0 37 37 49 59 49s59-10 59-49v-67c-18 4-37 6-57 6-22 0-43-2-63-6v67h2z m-257-167c-16 14-20 31-12 51 10 25 37 47 61 47 12 0 22-4 31-12l49-45c-31-24-57-55-76-88l-53 47z m-64-261c-39 0-49 37-49 59 0 16 4 31 14 41 8 12 22 16 37 16h84c-4-18-6-35-6-55 0-22 2-41 6-63h-86v2z m145-229c-10-8-20-12-29-12l0 0c-24 0-51 22-61 47-8 20-4 37 12 51l57 51c20-33 47-63 78-86l-57-51z m294-85c0-37-37-49-59-49s-59 10-59 49v80c20-4 41-6 63-6 20 0 37 2 57 6v-80h-2z m-57 122c-137 0-251 112-251 251s112 251 251 251 251-112 251-251-114-251-251-251z m312 49c16-14 20-31 12-51-10-25-37-47-61-47-12 0-22 4-29 12l-53 47c31 24 59 53 80 86l51-47z m102 161c-8-12-22-16-37-16h-79c4 20 6 41 6 63 0 18-2 37-6 55h78c39 0 49-37 49-59 2-18-4-33-11-43z" horiz-adv-x="1000" />
<glyph glyph-name="rectangle-column" unicode="&#xe881;" d="M496 856l209-129 0-633-209-125-201 125 0 633 201 129m-2 57l-248-159 0-687 250-155 0 2 258 153-2 687z m2-57l166-104-162-105-164 107 160 102m-2 57l-248-159 254-164 252 162z m-17-266l48 0-3-703-49 0z" horiz-adv-x="1000" />
<glyph glyph-name="circle-table" unicode="&#xe882;" d="M426 717l0 74c0 43 39 63 74 63 35 0 74-20 74-63l0-72c12-4 24-6 35-10l0 82c0 63-54 96-109 96-55 0-109-33-109-96l0-84c11 4 23 8 35 10z m-227-381l-92 0c-44 0-64 37-64 73 0 21 6 39 18 52 11 16 27 22 46 22l90 0c2 12 6 23 10 35l-100 0c-29 0-54-12-74-35-15-20-23-45-23-74 0-53 35-106 97-106l104 0c-6 10-10 20-12 33z m485 334l48 45c12 10 28 16 41 16 32 0 65-24 77-57 6-15 11-43-16-68l-53-47c4-10 10-21 16-33l60 56c32 28 40 65 24 104-18 47-63 80-108 80-23 0-44-10-62-25l-57-51c10-8 20-14 30-20z m-110-562l0-74c0-43-39-63-74-63-35 0-74 20-74 63l0 74c-12 4-24 8-35 12l0-86c0-63 54-96 109-96 55 0 109 33 109 96l0 84c-11-4-23-8-35-10z m-248 45l-58-53c-12-10-28-16-41-16-32 0-65 26-77 59-5 14-9 43 18 68l61 53c-6 10-10 20-16 31l-68-60c-32-26-39-65-26-104 18-47 63-80 108-80 23 0 45 8 62 24l68 60c-9 6-21 12-31 18z m-103 402l-59 51c-25 25-19 53-16 68 14 33 45 57 77 57 15 0 29-6 41-16l52-49c10 8 20 14 30 20l-61 53c-17 17-39 25-62 25-45 0-90-33-108-78-15-39-6-78 24-105l66-61c6 14 12 25 16 35z m554-295l57-49c27-25 22-54 16-68-12-33-45-59-77-59-13 0-27 6-39 16l-56 51c-10-8-22-12-31-18l64-58c18-16 41-24 62-24 45 0 90 33 110 80 14 39 4 78-27 104l-63 56c-6-9-10-21-16-31z m116 256l-92 0c4-12 6-23 10-35l82 0c45 0 64-37 64-74 0-20-6-37-16-51-11-16-29-22-48-22l-84 0c-4-11-8-23-12-35l96 0c31 0 56 12 74 35 15 20 23 45 23 73 0 54-33 109-97 109z m-86-180c6 24 9 51 9 79 0 23-1 46-7 68-2 10-6 23-10 33 0 4-2 8-4 10-4 12-10 23-16 33-21 45-56 82-97 111-8 8-20 14-30 20-15 8-31 16-46 21-10 4-22 6-34 10-23 4-47 8-72 8-27 0-53-4-78-10-12-4-24-8-33-12-16-5-30-11-43-19-10-6-20-12-30-20-41-29-74-68-95-113-6-10-10-21-16-31 0-2-2-4-2-8-4-10-6-21-10-33-3-22-7-45-7-68 0-28 4-55 9-79 4-11 8-23 12-35 0-2 2-4 4-6 4-11 8-21 14-33 23-43 58-82 99-109 12-8 22-14 32-18 9-6 23-12 33-17 11-4 21-8 35-10 23-6 51-10 78-10 23 0 49 2 70 8 12 2 24 6 35 10 12 4 26 9 38 15 11 6 21 12 31 18 43 29 76 66 101 109 6 10 10 22 16 32 0 3 2 5 4 9 4 14 8 24 10 37z m-303-203c-156 0-281 125-281 280 0 154 127 279 281 279 152 0 279-125 279-279 0-155-125-280-279-280z" horiz-adv-x="1000" />
<glyph glyph-name="flag" unicode="&#xe883;" d="M195-80c-13 0-25 12-25 26l0 890c0 14 12 26 25 26 16 0 28-12 28-26l0-890c0-16-12-26-28-26z m200 934c39 0 84-37 142-96 106-111 182-129 240-131 0-41 0-146 0-242 0-29 0-51 0-58 0-6-2-10-2-12-3-2-7-2-15-2-28 0-84 12-154 86-88 96-178 117-239 117-11 0-23-2-31-2 0 43 0 174 0 254 0 27 0 47 0 61 8 7 25 17 43 23 6 2 10 2 16 2m0 51c-10 0-22 0-32-4 0 0-80-28-80-65 0-35 0-310 0-338 0-25 16-39 37-39 2 0 4 0 8 0 8 2 22 4 39 4 47 0 121-15 201-101 79-86 151-102 192-102 15 0 27 4 33 4 22 8 35 31 35 61 0 31 0 295 2 318 0 22-12 35-41 35-29 2-99-6-215 117-66 67-123 110-179 110z" horiz-adv-x="1000" />
<glyph glyph-name="rectangular-shape" unicode="&#xe884;" d="M947 594l0-363-894 0 0 363 894 0m51 51l-998 0 0-465 998 0z" horiz-adv-x="1000" />
<glyph glyph-name="attendees" unicode="&#xe885;" d="M1001-150l-1001 0 0 119 334 214 0 84c-21 0-40 20-57 62-18 41-27 76-27 104l0 167c0 69 25 128 74 177 49 49 108 73 177 73 69 0 128-24 177-73 49-49 73-108 73-177l0-167c0-28-9-63-26-104-18-42-37-62-57-62l0-84 333-214 0-119" horiz-adv-x="1001" />
<glyph glyph-name="f4u_corsair_folded" unicode="&#xe886;" d="M1256 379l-20 213c-2 27-20 77-73 77-50 0-67-49-70-76l-36-187c-47 5-167 20-243 27-31 3-120 9-159 12l-4 154c0 2 0 4-1 7l-31 90c-13 54-70 154-195 154-69 0-96-63-101-97l-31-163c0-1 0-3 0-4v-83c0-2 0-5 1-7l2-7v-37h-7c-5 0-9-1-13-2-2 1-4 1-7 1h-109c-1 0-2 0-3 0-16 0-30-2-41-7 0 5 0 12 0 19-1 11-3 40-5 62-1 9-2 23-4 33-1 14-4 32-23 32-19 0-22-18-23-28-2-8-3-19-4-30-2-13-5-46-5-75 0-29 2-57 3-73h-21c-17 0-31-15-31-33s14-33 31-33h22c-2-16-4-45-4-74 0-29 4-62 5-75 2-12 3-22 4-30 2-11 5-29 24-29 19 0 21 19 23 33 2 10 3 23 4 33 2 22 4 51 4 62 0 7 0 13 0 18 13-6 28-9 44-9 0 0 0 0 0 0h111c3 0 6 0 8 1 3 0 6-1 10-1h9v-29c-4-4-5-9-5-14v-88c0 0 0-1 0-1l0-2c0-1 0-1 0-2l31-163c5-34 32-97 101-97 125 0 182 99 195 153l33 90c0 0 0 0 1 1l0 3c1 1 1 3 1 5l1 150c34 1 103 6 160 11 61 6 193 22 242 28l36-183c3-26 22-74 73-74 52 0 69 50 71 77l20 208c22 6 34 14 34 30 0 16-13 24-35 29z m-39-40l-22-224c0 0 0 0 0 0 0-4-3-38-29-38-26 0-31 34-31 38 0 0-1 1-1 2l-40 202c-2 11-12 18-23 17-2 0-185-23-260-31-76-7-176-12-177-12-11-1-20-10-20-21l-1-165-34-89c0-1 0-2-1-3 0 0-7-31-30-62-30-40-72-61-124-61-21 0-36 10-48 29-9 16-11 33-11 33-1 0-1 1-1 1l-31 162v77c3 4 5 9 5 14v60c0 12-9 21-21 21h-29c-1 0-1 0-2 0-5 5-10 6-17 5-4 0-7-3-10-6h-100c-13 1-26 5-29 8v42c1 2 1 5 1 7 0 2 0 3 0 5 0 1 0 3 0 4 0 3 0 5-1 7v44c3 2 13 5 26 5l2 0c0 0 0 0 0 0h102c8-7 19-7 26 0 1 0 1 0 2 0h28c12 0 21 10 21 21v61c0 3-1 5-1 7l-3 7v78l31 161c0 1 0 1 0 2 0 0 3 17 12 33 12 19 27 28 48 28 124 0 153-117 154-122 1-1 1-2 1-3l31-88 3-170c0-11 9-20 20-21 1 0 138-8 177-12 95-10 260-30 261-30 11-1 21 6 23 17l40 207c1 0 1 1 1 2 0 2 3 39 28 39 27 0 31-35 32-39l21-229c0-4 2-7 4-10-2-3-3-7-3-10z" horiz-adv-x="1294" />
</font>
</defs>
</svg>
